<svg xmlns="http://www.w3.org/2000/svg" width="64" height="64"><path d="M53.867 12.8H14.398c-.585 0-1.066.477-1.066 1.067v49.067c0 .59.48 1.066 1.066 1.066h39.47c.589 0 1.066-.477 1.066-1.066V13.867c0-.59-.477-1.066-1.067-1.066Zm0 0" style="stroke:none;fill-rule:nonzero;fill:#d7d8d9;fill-opacity:1"/><path d="M48.535 8.535H10.133c-.59 0-1.067.477-1.067 1.067v48c0 .586.477 1.066 1.067 1.066h38.402a1.07 1.07 0 0 0 1.067-1.066v-48c0-.59-.48-1.067-1.067-1.067Zm0 0" style="stroke:none;fill-rule:nonzero;fill:#ebebec;fill-opacity:1"/><path d="M12.266 57.602v-48c0-.59.48-1.067 1.066-1.067h-3.2c-.589 0-1.066.477-1.066 1.067v48c0 .586.477 1.066 1.067 1.066h3.199a1.07 1.07 0 0 1-1.066-1.066Zm0 0" style="stroke:none;fill-rule:nonzero;fill:#d7d8d9;fill-opacity:1"/><path d="M40 26.668h-8.535a1.07 1.07 0 0 1-1.067-1.066v-8.536c0-.59.48-1.066 1.067-1.066H40c.59 0 1.066.477 1.066 1.066v8.536c0 .585-.476 1.066-1.066 1.066Zm-7.465-2.133h6.399v-6.402h-6.399Zm0 0" style="stroke:none;fill-rule:nonzero;fill:#f58f6c;fill-opacity:1"/><path d="M25.066 20.266h-9.601a1.068 1.068 0 0 1-1.067-1.067c0-.59.48-1.066 1.067-1.066h9.601a1.065 1.065 0 1 1 0 2.133ZM21.867 24.535h-6.402c-.586 0-1.067-.48-1.067-1.07 0-.586.48-1.067 1.067-1.067h6.402a1.068 1.068 0 0 1 0 2.137Zm0 0" style="stroke:none;fill-rule:nonzero;fill:#9b9da1;fill-opacity:1"/><path d="M40 40.535h-8.535c-.586 0-1.067-.48-1.067-1.07v-8.531c0-.59.48-1.067 1.067-1.067H40c.59 0 1.066.477 1.066 1.067v8.53c0 .59-.476 1.071-1.066 1.071Zm-7.465-2.137h6.399V32h-6.399Zm0 0" style="stroke:none;fill-rule:nonzero;fill:#f58f6c;fill-opacity:1"/><path d="M25.066 34.133h-9.601a1.068 1.068 0 0 1-1.067-1.067c0-.59.48-1.066 1.067-1.066h9.601a1.065 1.065 0 1 1 0 2.133ZM22.934 38.398h-7.47a1.068 1.068 0 0 1-1.066-1.066c0-.586.48-1.066 1.067-1.066h7.469a1.065 1.065 0 1 1 0 2.133Zm0 0" style="stroke:none;fill-rule:nonzero;fill:#9b9da1;fill-opacity:1"/><path d="M40 54.398h-8.535a1.068 1.068 0 0 1-1.067-1.066v-8.531c0-.59.48-1.067 1.067-1.067H40c.59 0 1.066.477 1.066 1.067v8.531c0 .59-.476 1.066-1.066 1.066Zm-7.465-2.132h6.399v-6.399h-6.399Zm0 0" style="stroke:none;fill-rule:nonzero;fill:#f58f6c;fill-opacity:1"/><path d="M25.066 48h-9.601a1.068 1.068 0 0 1-1.067-1.066c0-.59.48-1.067 1.067-1.067h9.601a1.065 1.065 0 1 1 0 2.133ZM20.8 52.266h-5.335a1.068 1.068 0 0 1-1.067-1.067c0-.59.48-1.066 1.067-1.066H20.8a1.065 1.065 0 1 1 0 2.133Zm0 0" style="stroke:none;fill-rule:nonzero;fill:#9b9da1;fill-opacity:1"/><path d="M36.8 23.465c-.277 0-.546-.106-.753-.313l-2.133-2.132a1.063 1.063 0 0 1 0-1.508 1.07 1.07 0 0 1 1.508 0l1.492 1.496 6.734-4.809a1.063 1.063 0 0 1 1.485.246c.344.48.234 1.149-.246 1.489l-7.469 5.336a1.052 1.052 0 0 1-.617.195Zm0 0" style="stroke:none;fill-rule:nonzero;fill:#6ac8b7;fill-opacity:1"/><path d="M36.598 6.844c-.2-.278-.52-.446-.864-.446h-12.8a1.067 1.067 0 0 0-1.012 1.406l2.133 6.4c.144.437.55.73 1.011.73h8.536a1.07 1.07 0 0 0 1.011-.73l2.133-6.4c.11-.324.055-.683-.148-.96Zm0 0" style="stroke:none;fill-rule:nonzero;fill:#e5563c;fill-opacity:1"/><path d="m26.188 14.203-2.133-6.398a1.057 1.057 0 0 1 .148-.961c.2-.278.52-.446.863-.446h-2.132a1.067 1.067 0 0 0-1.012 1.406l2.133 6.4c.144.437.55.73 1.011.73H27.2c-.457 0-.867-.293-1.012-.73Zm0 0" style="stroke:none;fill-rule:nonzero;fill:#cf442b;fill-opacity:1"/><path d="M34.488 1.66c.465-.7-.054-1.66-.886-1.66h-8.536c-.836 0-1.351.96-.886 1.66l1.953 2.93v10.344h2.133V4.266c0-.211-.063-.414-.18-.59l-1.027-1.543h4.546l-1.027 1.543c-.117.176-.18.379-.18.59v10.668h2.137V4.59Zm0 0" style="stroke:none;fill-rule:nonzero;fill:#606268;fill-opacity:1"/></svg>