<svg xmlns="http://www.w3.org/2000/svg" width="64" height="64"><path d="M24.55 13.648C29.7 21.25 22.2 29.25 22.853 32.7 24 38.801 28.898 41.801 24.3 47.95c-.75 1-4.153 3.352-9 .5C10.1 45.4 3.238 25.9 6.414 17.695c3.297-8.504 14.984-8.644 18.137-4.047ZM24.95 12.148c-2.302-1.5-1.552-12.25 4.902-8.5 6.449 3.75-2.602 10-4.903 8.5Zm0 0" style="stroke:none;fill-rule:nonzero;fill:#176bc6;fill-opacity:1"/><path d="M19.148 8.95c-2.046-.5-3.097-7.7 1.5-6.802 4.602.903.551 7.301-1.5 6.801ZM14.398 8.773c-1.25.352-6.199-4.449-1.597-5.949 4.398-1.449 2.847 5.602 1.597 5.95Zm0 0" style="stroke:none;fill-rule:nonzero;fill:#176bc6;fill-opacity:1"/><path d="M10.102 10.602c-1.25.75-6.102-2.75-2.903-4.954 3.051-2 4.153 4.204 2.903 4.954ZM6.95 13.523c-.95 1.25-5.15-.796-3.5-2.949 1.652-2.148 4.448 1.7 3.5 2.95ZM39.05 25.898C33.899 33.5 41.399 41.5 40.75 44.95c-1.148 6.102-6.05 9.102-1.45 15.25.75 1 4.15 3.352 9 .5 5.2-3.05 11.778-24.035 9.2-31.097-2.922-7.989-15.3-8.301-18.45-3.704ZM38.648 24.398c2.301-1.5 1.551-12.25-4.898-8.5-6.45 3.75 2.602 10 4.898 8.5Zm0 0" style="stroke:none;fill-rule:nonzero;fill:#176bc6;fill-opacity:1"/><path d="M44.45 21.2c2.05-.5 3.1-7.7-1.5-6.802-4.598.903-.552 7.301 1.5 6.801ZM49.074 21.148c1.25.352 6.153-4.449 1.602-5.949-4.403-1.449-2.852 5.602-1.602 5.95ZM53.5 22.852c1.25.75 6.102-2.75 2.898-4.954-3.046-2-4.148 4.204-2.898 4.954ZM56.824 25.648c.95 1.25 5.153-.796 3.5-2.949-1.699-2.148-4.5 1.7-3.5 2.95Zm0 0" style="stroke:none;fill-rule:nonzero;fill:#176bc6;fill-opacity:1"/></svg>