<svg xmlns="http://www.w3.org/2000/svg" width="64" height="64"><path d="M56.71 49.676h-4.237v-8.051c3.53 0 6.39-2.879 6.39-6.39 0-3.532-2.879-6.387-6.39-6.387V25.21c0-.43-.168-.852-.442-1.18L41.016 11.563a1.785 1.785 0 0 0-1.336-.602h-9.477V8.465c0-.98-.789-1.781-1.781-1.781H26.84V1.78C26.84.801 26.05 0 25.059 0h-7.102c-.98 0-1.781.79-1.781 1.781v4.903h-1.594c-.98 0-1.781.789-1.781 1.78v21.141c0 .98.789 1.782 1.781 1.782h1.594v4.902c0 .98.789 1.781 1.781 1.781h7.102c.98 0 1.78-.789 1.78-1.78v-4.911h1.595a1.78 1.78 0 0 0 1.78-1.781V23.03h5.079l5.145 6.344v12.86H16.27c-.98 0-1.782.788-1.782 1.78 0 .981.79 1.782 1.782 1.782h24.125v3.86H17.703c-6.926 0-12.566 5.628-12.566 12.562 0 .98.793 1.781 1.781 1.781h49.781c.98 0 1.781-.79 1.781-1.781V51.437c.012-.972-.8-1.761-1.77-1.761ZM19.704 3.562h3.555v3.122h-3.555Zm3.555 30.946h-3.555v-3.13h3.555Zm3.37-6.684H16.333v-4.11h1.59c.98 0 1.781-.788 1.781-1.78 0-.98-.789-1.782-1.781-1.782h-1.59v-3.55h5.145a1.78 1.78 0 1 0 0-3.563h-5.145v-2.824h10.297Zm25.837 4.567a2.843 2.843 0 0 1 2.836 2.836 2.846 2.846 0 0 1-2.836 2.836 2.843 2.843 0 0 1-2.836-2.836 2.84 2.84 0 0 1 2.836-2.836Zm-8.906-4.743-6.07-7.496a1.795 1.795 0 0 0-1.384-.652h-5.921v-4.953h8.671L48.91 25.898v4.036a6.367 6.367 0 0 0-2.832 5.3 6.374 6.374 0 0 0 2.832 5.305v9.137h-4.953V28.773c0-.421-.137-.808-.398-1.125Zm11.359 32.809H8.871c.832-4.121 4.469-7.23 8.832-7.23h37.215Zm0 0" style="stroke:none;fill-rule:nonzero;fill:#194f82;fill-opacity:1"/><path d="M8.871 60.457h46.047v-7.23H17.703c-4.355 0-8 3.109-8.832 7.23Zm0 0" style="stroke:none;fill-rule:nonzero;fill:#ffc10d;fill-opacity:1"/><path d="M16.344 13.047h5.14c.98 0 1.782.793 1.782 1.781 0 .98-.79 1.781-1.782 1.781h-5.14v3.563h1.59c.98 0 1.78.793 1.78 1.781 0 .98-.788 1.781-1.78 1.781h-1.59v4.114H26.64V10.234H16.344ZM19.703 3.563h3.555v3.12h-3.555ZM19.703 31.387h3.555v3.12h-3.555Zm0 0" style="stroke:none;fill-rule:nonzero;fill:#56ace0;fill-opacity:1"/><path d="m37.484 20.14 6.075 7.497c.25.316.39.707.39 1.117v20.902h4.953v-9.14a6.36 6.36 0 0 1-2.836-5.301 6.36 6.36 0 0 1 2.836-5.3v-4.04L38.848 14.523H30.16v4.954h5.926c.559.011 1.074.253 1.398.664Zm0 0" style="stroke:none;fill-rule:nonzero;fill:#ffc10d;fill-opacity:1"/><path d="M49.629 35.227a2.843 2.843 0 0 0 2.836 2.836 2.846 2.846 0 0 0 2.836-2.836 2.843 2.843 0 0 0-2.836-2.836 2.84 2.84 0 0 0-2.836 2.836Zm0 0" style="stroke:none;fill-rule:nonzero;fill:#56ace0;fill-opacity:1"/></svg>