<svg xmlns="http://www.w3.org/2000/svg" width="64" height="64"><path d="m11.73 38.852 21.254 12.27-1.562 2.706-21.254-12.27Zm0 0" style="stroke:none;fill-rule:nonzero;fill:#4b727b;fill-opacity:1"/><path d="M33.516 26.906s12.53 5.582 3.59 18.504c0 0-3.372-.765-6.958 1.715-4.5 3.113-5.011 9.852-13.347 9.852h35.293l-4.285-4.051s3.578-9.04 1.472-18.621c-2.453-11.149-11.89-13.852-11.89-13.852Zm0 0" style="stroke:none;fill-rule:nonzero;fill:#4b727b;fill-opacity:1"/><path d="M35.535 26.906s12.531 5.582 3.59 18.504c0 0-3.371-.765-6.953 1.715-4.5 3.113-5.016 9.852-13.352 9.852h35.293l-4.285-4.051s3.578-9.04 1.473-18.621c-2.45-11.149-11.89-13.852-11.89-13.852Zm0 0" style="stroke:none;fill-rule:nonzero;fill:#82aec0;fill-opacity:1"/><path d="m12.477 37.559 14.875 8.59-.743 1.285-14.875-8.586Zm0 0" style="stroke:none;fill-rule:nonzero;fill:#81d4fa;fill-opacity:1"/><path d="m8.672 49.121.906-1.973s9.719 3.805 11.527 4.477l-.824 1.805c-.277.742-3.097.37-6.3-.82-3.208-1.188-5.583-2.755-5.31-3.489Zm0 0" style="stroke:none;fill-rule:nonzero;fill:#4b727b;fill-opacity:1"/><path d="M20.016 51.637c-1.16 0-3.094-.453-5.055-1.184-3.715-1.379-5.18-2.762-5.11-3.055.012-.035.204-.16.81-.16 1.16 0 3.093.453 5.054 1.184 3.715 1.379 5.18 2.762 5.11 3.055-.016.035-.204.16-.81.16Zm0 0" style="stroke:none;fill-rule:nonzero;fill:#b3e5fc;fill-opacity:1"/><path d="M10.664 47.578c1.121 0 3.016.445 4.938 1.16 2.632.98 4.199 2.016 4.714 2.547a2.124 2.124 0 0 1-.296.016c-1.122 0-3.016-.446-4.934-1.16-2.637-.98-4.2-2.016-4.715-2.547.074-.008.176-.016.293-.016m0-.68c-.625 0-1.027.125-1.129.383-.273.739 2.102 2.297 5.309 3.492 2.086.778 4.011 1.204 5.176 1.204.625 0 1.03-.125 1.128-.383.278-.739-2.097-2.297-5.308-3.492-2.09-.774-4.016-1.204-5.176-1.204Zm0 0" style="stroke:none;fill-rule:nonzero;fill:#90a4ae;fill-opacity:1"/><path d="M12.613 50.355s-2.144 3.739.434 6.926c1.95 2.41 10.293.305 10.293.305s-7.602-.492-7.781-5.637Zm0 0" style="stroke:none;fill-rule:nonzero;fill:#4b727b;fill-opacity:1"/><path d="M58.266 62H5.734a1.149 1.149 0 0 1-1.144-1.145 4.615 4.615 0 0 1 4.613-4.617h45.594a4.615 4.615 0 0 1 4.613 4.617c0 .633-.512 1.145-1.144 1.145Zm0 0" style="stroke:none;fill-rule:nonzero;fill:#82aec0;fill-opacity:1"/><path d="m21.664 32.113 3.883 2.239-3.887 5.214s-.71.204-1.726-.347c-1.012-.547-1.125-1.285-1.125-1.285Zm0 0" style="stroke:none;fill-rule:nonzero;fill:#545454;fill-opacity:1"/><path d="m40.3 14.719 4.044-7.016s-.864-2.008-3.164-3.387c-2.301-1.382-4.149-.82-4.149-.82l-4.043 7.016c-.004.004-.011.008-.011.02-.266.456 1.16 1.773 3.18 2.937 2.019 1.168 3.874 1.734 4.14 1.277 0-.008 0-.016.004-.027Zm0 0" style="stroke:none;fill-rule:nonzero;fill:#82aec0;fill-opacity:1"/><path d="M41.96 3.488c-4.23-2.52-5.651-1.215-5.92-.578-.13.309-.036 1.13.507 1.45l.289-.54c.266-.46 2.3-.234 4.336.934 2.027 1.172 3.226 2.824 2.965 3.285l-.246.422c.3.238 1.23.098 1.453-.195.418-.555 1.05-2.137-3.383-4.778Zm0 0" style="stroke:none;fill-rule:nonzero;fill:#616161;fill-opacity:1"/><path d="M20.113 26.95c1.399-2.419 5.309-2.778 8.739-.802 3.43 1.98 5.078 5.543 3.687 7.961-1.394 2.422-5.523 3.164-8.96 1.188-3.43-1.977-4.86-5.926-3.466-8.348Zm0 0" style="stroke:none;fill-rule:nonzero;fill:#bdbdbd;fill-opacity:1"/><path d="M25.547 34.855s.367-.55 1.988-.707c1.625-.152 2.48.891 2.48.891l-.94 5.73s-.544.504-1.696.47c-1.149-.036-1.582-.637-1.582-.637ZM20 28.36s.93-.051 1.695 1.39c.875 1.645-.011 2.75-.011 2.75l-5.153 1.836s-.71-.215-1.261-1.227c-.551-1.015-.247-1.687-.247-1.687Zm0 0" style="stroke:none;fill-rule:nonzero;fill:#757575;fill-opacity:1"/><path d="M37.11 11.809c-3.247-1.829-5.294-2.258-6.266-2.344a.98.98 0 0 0-.938.496l-9.781 16.98s2.422.293 6.64 2.73c4.22 2.43 5.782 4.423 5.782 4.423l9.789-16.992a1 1 0 0 0-.035-1.051c-.54-.813-1.926-2.403-5.192-4.242Zm0 0" style="stroke:none;fill-rule:nonzero;fill:#e0e0e0;fill-opacity:1"/><path d="M39.98 53.648a3.264 3.264 0 0 1-3.265 3.266 3.264 3.264 0 1 1 0-6.527 3.263 3.263 0 0 1 3.265 3.261Zm0 0" style="stroke:none;fill-rule:nonzero;fill:#424242;fill-opacity:1"/><path d="M39.48 54c0 1.145-.925 2.07-2.07 2.07A2.069 2.069 0 0 1 35.34 54c0-1.145.926-2.07 2.07-2.07 1.145 0 2.07.925 2.07 2.07Zm0 0" style="stroke:none;fill-rule:nonzero;fill:#bdbdbd;fill-opacity:1"/><path d="M24.035 27.379s8.66-15 9.29-15.719c.624-.719 2.991.235 2.62.93-.37.695-8.98 16.047-8.98 16.047-1.715-1.121-2.93-1.258-2.93-1.258Zm0 0" style="stroke:none;fill-rule:nonzero;fill:#f5f5f5;fill-opacity:1"/><path d="M42.055 46.574c.71-1.09 2.445-4.328 2.047-9.504-.622-8.082-7.137-10.66-7.137-10.66l-.578 1.004c5.297 3.484 8.582 9.54 2.738 17.992 0 0-3.371-.765-6.953 1.715-3.543 2.45-4.617 7.133-8.969 9.024h3.125s2.024.07 4.184-3.485c2.16-3.555 3.343-5.297 6.965-5.922 3.617-.625 6.753 2.301 6.753 2.301s-.484-1.348-2.175-2.465Zm0 0" style="stroke:none;fill-rule:nonzero;fill:#94d1e0;fill-opacity:1"/><path d="M42.29 23.68a3.616 3.616 0 1 1-7.233.002 3.616 3.616 0 0 1 7.232-.002Zm0 0" style="stroke:none;fill-rule:nonzero;fill:#424242;fill-opacity:1"/><path d="M41.89 23.613a2.456 2.456 0 0 1-2.456 2.457 2.453 2.453 0 0 1-2.454-2.457 2.456 2.456 0 0 1 4.91 0Zm0 0" style="stroke:none;fill-rule:nonzero;fill:#bdbdbd;fill-opacity:1"/><path d="M37.71 21.254c-1.858 1.223-.964 3.441-.964 3.441l-.91.211c-.461-.73-.492-1.715-.211-2.52.238-.671.637-1.222 1.605-1.652Zm0 0" style="stroke:none;fill-rule:nonzero;fill:#757575;fill-opacity:1"/><path d="M38.297 4.363 35.34 9.922l1.535.601 3.11-5.707c-1.145-.66-1.688-.453-1.688-.453Zm0 0" style="stroke:none;fill-rule:nonzero;fill:#94d1e0;fill-opacity:1"/><path d="M28.64 40.547c0 .187-.488.344-1.085.344-.598 0-1.086-.157-1.086-.344 0-.192.488-.348 1.086-.348.597 0 1.086.156 1.086.348Zm0 0" style="stroke:none;fill-rule:nonzero;fill:#81d4fa;fill-opacity:1"/></svg>