<svg xmlns="http://www.w3.org/2000/svg" width="64" height="64"><path d="m42.586 37.934-4.652 4.543H33.39v-4.543l4.543-4.543h4.652ZM51.781 47.125l-4.652 4.543h-4.543v-4.543l4.543-4.648h4.652Zm0 0" style="stroke:none;fill-rule:nonzero;fill:#63d3fd;fill-opacity:1"/><path d="m47.129 42.477-4.543 4.543v.214l2.812-2.812h4.543v4.433l1.84-1.835v-4.543ZM37.934 33.39l-4.543 4.544v.214l2.707-2.812h4.648v4.434l1.84-1.836V33.39Zm0 0" style="stroke:none;fill-rule:nonzero;fill:#3db9f9;fill-opacity:1"/><path d="M13.164 19.652h6.492V13.16h-6.492Zm0 0" style="stroke:none;fill-rule:nonzero;fill:#63d3fd;fill-opacity:1"/><path d="M27.227 1.262c2.378 6.492 3.246 13.523.757 16.011l-1.515 1.512 5.3 5.41 1.516-1.515c2.488-2.489 8.867-2.38 15.25 0 0 0 1.516-9.192-5.406-16.008-6.926-6.813-15.902-5.41-15.902-5.41" style="stroke:none;fill-rule:nonzero;fill:#ffe100;fill-opacity:1"/><path d="M43.344 6.781c-5.84-5.843-13.305-5.625-15.469-5.41 3.355.219 8.223 1.406 12.223 5.41 5.515 5.516 5.625 12.547 5.41 15.14.972.22 2.054.544 3.137.977.105-.109 1.511-9.304-5.301-16.117" style="stroke:none;fill-rule:nonzero;fill:#ffa800;fill-opacity:1"/><path d="m18.898 26.465-1.515 1.515c-2.594 2.489-9.625 1.622-16.117-.757 0 0-1.512 9.195 5.3 16.007 6.817 6.817 16.118 5.41 16.118 5.41-2.38-6.488-2.489-12.87 0-15.25l1.515-1.515Zm0 0" style="stroke:none;fill-rule:nonzero;fill:#ffe100;fill-opacity:1"/><path d="M9.813 43.34c-5.516-5.516-5.626-12.547-5.41-15.145l-2.919-.972S-.03 36.418 6.891 43.23c5.734 5.735 13.09 5.625 15.359 5.41-3.46-.109-8.438-1.19-12.438-5.3" style="stroke:none;fill-rule:nonzero;fill:#fff;fill-opacity:1"/><path d="m37.934 33.39-4.543 4.544-4.543-4.543 4.543-4.653ZM47.129 42.477l-4.543 4.648-4.652-4.648 4.652-4.543Zm0 0" style="stroke:none;fill-rule:nonzero;fill:#ffe100;fill-opacity:1"/><path d="m33.5 28.848-1.406 1.406 4.433 4.433-3.242 3.137.215.215 4.543-4.543ZM42.695 38.04l-1.406 1.405 4.434 4.328-3.246 3.247.218.214 4.543-4.652Zm0 0" style="stroke:none;fill-rule:nonzero;fill:#ffa800;fill-opacity:1"/><path d="m62.707 59.023-3.57 3.57c-.219.216-.649.216-.973 0L47.13 51.669l4.543-4.543L62.707 58.16a.505.505 0 0 1 0 .863" style="stroke:none;fill-rule:nonzero;fill:#ffe100;fill-opacity:1"/><path d="M62.707 58.16 51.781 47.125l-1.3 1.3 9.738 9.735c.215.215.215.649 0 .973l-2.813 2.812.864.864c.218.218.648.218.972 0l3.68-3.567c.11-.433.11-.867-.215-1.082" style="stroke:none;fill-rule:nonzero;fill:#ffa800;fill-opacity:1"/><path d="m34.906 27.223-7.68 7.68-11.464-11.465 7.68-7.68Zm0 0" style="stroke:none;fill-rule:nonzero;fill:#ffe100;fill-opacity:1"/><path d="M16.52 43.555h-.325c-1.84-.54-4.543-1.297-6.597-3.352-2.059-2.055-2.813-4.758-3.356-6.598-.11-.539.219-1.19.758-1.296.54-.11 1.191.214 1.297.757.433 1.621 1.082 4 2.812 5.621 1.73 1.731 4.004 2.274 5.625 2.813.543.11.868.758.758 1.3 0 .54-.433.755-.972.755ZM33.39 39.012c-.324 0-.538-.106-.753-.325l-4.543-4.542a1.041 1.041 0 0 1 0-1.512l4.543-4.543a1.041 1.041 0 0 1 1.511 0l4.543 4.543c.434.43.434 1.082 0 1.512l-4.543 4.542a.973.973 0 0 1-.757.325Zm-3.027-5.621 3.028 3.027 3.03-3.027-3.03-3.032ZM19.656 20.734h-6.492c-.648 0-1.082-.433-1.082-1.082V13.16c0-.648.434-1.078 1.082-1.078h6.492c.649 0 1.082.43 1.082 1.078v6.492c0 .649-.433 1.082-1.082 1.082Zm-5.41-2.164h4.328v-4.328h-4.328ZM42.586 48.207c-.324 0-.54-.11-.758-.324l-4.543-4.543a1.052 1.052 0 0 1 0-1.516l4.543-4.543a1.052 1.052 0 0 1 1.516 0l4.543 4.543a1.046 1.046 0 0 1 0 1.516l-4.543 4.543a1.177 1.177 0 0 1-.758.324Zm-3.027-5.73 3.027 3.027 3.027-3.027-3.027-3.032Zm0 0" style="stroke:none;fill-rule:nonzero;fill:#000;fill-opacity:1"/><path d="M37.934 43.555H33.39c-.649 0-1.078-.43-1.078-1.078v-4.543c0-.325.105-.543.324-.758l4.543-4.543c.215-.219.43-.324.754-.324h4.543c.652 0 1.082.43 1.082 1.082v4.543c0 .324-.106.539-.325.754l-4.543 4.542c-.105.22-.433.325-.757.325Zm-3.461-2.16h3.03l4-4.004v-3.028h-3.026l-4.004 4ZM47.129 52.75h-4.543c-.648 0-1.082-.434-1.082-1.082v-4.543c0-.324.11-.54.324-.758l4.543-4.543c.219-.215.434-.324.758-.324h4.543c.648 0 1.082.434 1.082 1.082v4.543c0 .324-.11.543-.324.758l-4.543 4.543c-.215.215-.434.324-.758.324Zm-3.461-2.164h3.027l4.004-4v-3.027h-3.027l-4.004 4Zm0 0" style="stroke:none;fill-rule:nonzero;fill:#000;fill-opacity:1"/><path d="M58.594 64c-.43 0-.864-.215-1.297-.54L46.37 52.427a1.046 1.046 0 0 1 0-1.516l4.543-4.543a1.052 1.052 0 0 1 1.516 0l11.03 11.035c.65.649.65 1.84 0 2.489l-3.565 3.57a1.8 1.8 0 0 1-1.301.539Zm-9.95-12.332 9.95 9.953 3.031-3.031-9.953-9.95ZM27.227 35.984c-.325 0-.54-.109-.758-.324L15.004 24.195c-.215-.218-.324-.433-.324-.758 0-.324.11-.539.324-.757l7.68-7.68a1.046 1.046 0 0 1 1.515 0l11.465 11.465a1.046 1.046 0 0 1 0 1.515l-7.68 7.68c-.109.215-.433.324-.757.324Zm-9.95-12.547 9.95 9.954 6.164-6.168-9.95-9.95ZM42.586 17.598c-.434 0-.863-.325-1.082-.758-.434-1.621-1.082-4.004-2.813-5.625-1.62-1.73-3.894-2.38-5.625-2.813-.539-.109-.863-.757-.754-1.297.106-.543.754-.867 1.297-.757 1.84.539 4.543 1.297 6.598 3.351 2.055 2.055 2.813 4.762 3.352 6.598.109.543-.215 1.191-.758 1.3h-.215Zm0 0" style="stroke:none;fill-rule:nonzero;fill:#000;fill-opacity:1"/><path d="M31.879 25.277c-.324 0-.543-.109-.758-.324l-5.3-5.41a1.041 1.041 0 0 1 0-1.512l1.515-1.515c1.945-1.95 1.512-8.004-.973-14.926-.218-.328-.218-.653 0-.867a.806.806 0 0 1 .754-.54c.434-.109 9.844-1.515 16.985 5.622 7.136 7.14 5.73 16.55 5.625 16.984a.818.818 0 0 1-.543.758c-.325.215-.649.215-.864.105-6.168-2.27-12.117-2.379-14.172-.215l-1.511 1.516a1.185 1.185 0 0 1-.758.324Zm-3.895-6.492 3.786 3.79.757-.759c2.594-2.597 8.543-2.812 15.145-.757.105-2.704-.328-8.977-5.195-13.844-4.868-4.871-11.141-5.3-13.844-5.195 1.945 6.058 2.922 12.98 0 15.902ZM20.414 49.832c-3.355 0-9.52-.758-14.605-5.844C-1.328 36.957.184 27.441.184 27.008c0-.324.218-.649.543-.758.324-.11.648-.11.863 0 6.926 2.488 12.98 2.922 14.93.973l1.511-1.512a1.046 1.046 0 0 1 1.516 0l5.41 5.297c.215.219.324.433.324.758 0 .324-.11.543-.324.757l-1.516 1.516c-2.054 2.055-1.945 8.004.215 14.168.11.324.11.648-.105.867-.219.324-.434.43-.758.54-.11.109-.973.218-2.379.218ZM2.242 28.738c-.11 2.703.324 8.977 5.192 13.844 4.867 4.867 11.14 5.3 13.843 5.191-2.054-6.597-1.84-12.546.758-15.14l.758-.758-3.785-3.785-.758.758c-3.031 2.812-9.953 1.836-16.008-.11Zm0 0" style="stroke:none;fill-rule:nonzero;fill:#000;fill-opacity:1"/></svg>