<svg xmlns="http://www.w3.org/2000/svg" width="64" height="64"><path d="M56.496.383c-.41-.684-1.457-.39-1.453.41V.82c0 10.313-5.926 19.239-14.555 23.567v15.062a26.27 26.27 0 0 0 19.75-25.261A26.252 26.252 0 0 0 56.496.383Zm0 0" style="stroke:none;fill-rule:nonzero;fill:#7d45b2;fill-opacity:1"/><path d="M62.414 33.586C62.414 50.383 48.797 64 32 64S1.586 50.383 1.586 33.586 15.203 3.176 32 3.176s30.414 13.613 30.414 30.41Zm0 0" style="stroke:none;fill-rule:nonzero;fill:#a66edd;fill-opacity:1"/><path d="M38.516 59.508c-16.797 0-30.41-13.613-30.41-30.41 0-8.977 3.886-17.04 10.066-22.606C8.328 11.527 1.586 21.77 1.586 33.586 1.586 50.383 15.203 64 32 64c7.824 0 14.953-2.957 20.344-7.809a30.285 30.285 0 0 1-13.828 3.317Zm0 0" style="stroke:none;fill-rule:nonzero;fill:#7d45b2;fill-opacity:1"/><path d="M35.309 32.914a3.37 3.37 0 0 1-3.371 3.375 3.37 3.37 0 0 1-3.375-3.375 3.373 3.373 0 1 1 6.746 0ZM53.371 32.004a3.376 3.376 0 1 1-6.752-.002 3.376 3.376 0 0 1 6.752.002Zm0 0" style="stroke:none;fill-rule:nonzero;fill:#fc4c59;fill-opacity:1"/><path d="M40.621 52.145c-3.27 0-6.422-1.399-8.941-3.977a1.236 1.236 0 1 1 1.77-1.727c2.167 2.22 4.882 3.364 7.644 3.215 2.726-.14 5.324-1.605 7.324-4.125a1.24 1.24 0 0 1 1.937 1.543c-2.445 3.078-5.687 4.871-9.128 5.055a10.53 10.53 0 0 1-.606.016ZM32.008 37.527a4.781 4.781 0 0 1-4.352-2.789c-.586-1.285-.566-2.855.055-4.21a4.844 4.844 0 0 1 1.055-1.489c-.192-.098-.383-.195-.575-.297-.847-.437-1.527-.84-2.183-1.226a43.177 43.177 0 0 0-2.719-1.512 1.24 1.24 0 0 1-.547-1.664 1.238 1.238 0 0 1 1.664-.543c1.211.613 2.051 1.11 2.86 1.586.656.39 1.277.754 2.062 1.164.531.273 1.043.535 1.535.785 2.106 1.078 3.922 2.004 5.133 2.988.149.121.266.274.344.446a4.777 4.777 0 0 1-4.332 6.761Zm-.672-7.168c-.027.008-.05.02-.078.028-.723.207-1.106.754-1.297 1.172-.316.687-.336 1.53-.055 2.148a2.303 2.303 0 0 0 4.25-.152c.18-.489.192-1.016.035-1.504-.714-.531-1.707-1.086-2.855-1.692ZM50.16 36.688a4.754 4.754 0 0 1-1.98-.434 4.739 4.739 0 0 1-2.489-2.68 4.757 4.757 0 0 1 .13-3.652c.09-.188.222-.356.39-.48 1.3-.962 3.02-1.958 5.105-2.965 3.13-1.516 3.34-1.637 5.883-3.13l.39-.23a1.237 1.237 0 1 1 1.25 2.137l-.386.226c-2.23 1.31-2.73 1.602-4.926 2.672a4.92 4.92 0 0 1 1.102 1.711c.5 1.301.453 2.774-.121 4.032a4.744 4.744 0 0 1-2.676 2.488 4.756 4.756 0 0 1-1.672.304Zm-2.195-5.461a2.302 2.302 0 0 0 .043 1.484 2.294 2.294 0 0 0 2.96 1.355 2.3 2.3 0 0 0 1.29-1.199c.297-.652.32-1.445.062-2.12a2.417 2.417 0 0 0-1.28-1.36c-1.204.629-2.231 1.246-3.075 1.84Zm0 0" style="stroke:none;fill-rule:nonzero;fill:#3a2568;fill-opacity:1"/><path d="M16.313 16.797a22.582 22.582 0 0 1-6.254-15.629v-.023c0-.688-.895-.942-1.25-.352a22.552 22.552 0 0 0-3.215 11.871c.035 3.64.918 7.07 2.46 10.098 0 0 .481 1.011 1.036 1.691" style="stroke:none;fill-rule:nonzero;fill:#a66edd;fill-opacity:1"/><path d="M36.277 8.488c3.375.957 5.68 3.258 5.145 5.145-.531 1.883-3.703 2.637-7.078 1.683-3.375-.957-5.676-3.257-5.145-5.144.535-1.883 3.703-2.637 7.078-1.684Zm0 0" style="stroke:none;fill-rule:nonzero;fill:#b486ef;fill-opacity:1"/></svg>