<svg xmlns="http://www.w3.org/2000/svg" width="64" height="64"><path d="m12.238 57.07 8.336-8.34-5.414-5.414-8.336 8.34-1.844-1.843a1.046 1.046 0 0 0-1.515 0L.977 52.304a1.046 1.046 0 0 0 0 1.515l9.203 9.203a1.046 1.046 0 0 0 1.515 0l2.492-2.488c.434-.433.434-1.191-.218-1.734Zm-2.707-2.707-2.707-2.707Zm0 0" style="stroke:none;fill-rule:nonzero;fill:#ffd0a1;fill-opacity:1"/><path d="m22.2 41.691 3.788 3.79 5.957-5.954-3.789-3.793-5.957 5.957 5.957-5.957-3.789-3.789-5.957 5.957ZM63.351.543l-2.168 9.746-21.657 21.656-3.793-3.789Zm0 0L35.734 28.156l-3.789-3.789 21.66-21.66Zm0 0" style="stroke:none;fill-rule:nonzero;fill:#ecf4f7;fill-opacity:1"/><path d="m45.48 37.902-3.789 3.79L.543.542l9.746 2.164 21.656 21.66 3.79 3.79 3.792 3.788Zm-3.789 3.79-3.789 3.788-5.957-5.953-3.789-3.793-3.789-3.789L2.707 10.29.543.543Zm0 0" style="stroke:none;fill-rule:nonzero;fill:#ecf4f7;fill-opacity:1"/><path d="m25.988 45.48 3.793 3.793c-2.816 2.817-5.742 2.922-8.664 0l-5.957-5.957-.539-.543c-2.816-2.812-2.926-5.738 0-8.66Zm19.492-7.578 3.793-3.789c2.922 2.813 2.922 5.739 0 8.66l-6.5 6.5c-2.812 2.817-5.738 2.922-8.66 0l3.79-3.793Zm0 0" style="stroke:none;fill-rule:nonzero;fill:#ae938d;fill-opacity:1"/><path d="m51.762 57.07 5.308-5.308-8.34-8.336-5.414 5.414 8.446 8.23-1.95 1.95a1.046 1.046 0 0 0 0 1.515l2.493 2.492c.433.43 1.082.43 1.515 0l9.203-9.207a1.046 1.046 0 0 0 0-1.515l-2.488-2.492c-.433-.434-1.191-.434-1.734.218l-1.625 1.625c-.106 0-5.414 5.414-5.414 5.414Zm0 0" style="stroke:none;fill-rule:nonzero;fill:#ffd0a1;fill-opacity:1"/><path d="M53.063 63.89c-.434 0-.868-.214-1.192-.433l-2.492-2.488c-.649-.653-.649-1.625 0-2.274l1.52-1.52-7.583-7.577-.109.109c-3.031 3.031-6.387 3.031-9.422 0a.526.526 0 0 1 0-.758L48.95 33.785a.526.526 0 0 1 .758 0c1.516 1.52 2.273 3.14 2.273 4.656 0 1.625-.757 3.141-2.273 4.766l-.11.11 7.579 7.581 1.3-1.3c.868-.868 1.95-.868 2.598-.22l2.492 2.493c.325.324.434.758.434 1.191 0 .434-.215.868-.434 1.192l-9.203 9.203c-.433.219-.867.434-1.3.434Zm-8.989-15.16 8.016 8.016a.526.526 0 0 1 0 .758l-1.844 1.84a.526.526 0 0 0 0 .758l2.492 2.492a.526.526 0 0 0 .758 0l9.203-9.207c.11-.106.11-.215.11-.434 0-.215-.11-.324-.11-.433l-2.488-2.489c-.219-.218-.652-.11-.977.215l-1.625 1.625-2.488 2.492a.526.526 0 0 1-.758 0 .52.52 0 0 1 0-.758l2.055-2.058-8.012-8.016a.526.526 0 0 1 0-.758l.543-.539c1.297-1.3 2.055-2.707 2.055-4.007 0-1.192-.54-2.383-1.625-3.575L34.977 49.055c1.191 1.086 2.382 1.625 3.574 1.625 1.3 0 2.601-.649 3.898-1.95l3.25-3.25a.526.526 0 0 1 .758 0 .526.526 0 0 1 0 .758ZM10.828 63.89c-.433 0-.867-.214-1.191-.433L.434 54.254C.109 53.93 0 53.496 0 53.063c0-.434.215-.868.434-1.192l2.492-2.492c.648-.649 1.62-.649 2.273 0l1.516 1.52 7.578-7.583-.105-.109c-3.036-3.031-3.036-6.387 0-9.422a.526.526 0 0 1 .757 0l15.16 15.164c.11.106.11.215.11.43 0 .219-.11.328-.11.434-3.03 3.035-6.39 3.035-9.421 0l-.11-.106-7.578 7.578 1.297 1.3c.867.868.867 1.95.219 2.599l-2.492 2.492c-.325 0-.758.215-1.192.215ZM4.113 50.032c-.105 0-.324 0-.324.11l-2.488 2.488c-.11.11-.11.219-.11.434 0 .214.11.324.11.433l9.203 9.203a.52.52 0 0 0 .758 0l2.492-2.488c.215-.219.105-.652-.219-.977l-4.113-4.113a.52.52 0 0 1 0-.758.52.52 0 0 1 .758 0l2.058 2.055 8.012-8.012a.526.526 0 0 1 .758 0l.543.543c2.597 2.598 4.98 2.707 7.472.324L14.621 34.871c-2.277 2.488-2.168 4.98.324 7.473l3.246 3.246a.52.52 0 0 1 0 .758.52.52 0 0 1-.757 0l-2.274-2.383-8.012 8.015a.526.526 0 0 1-.757 0l-1.844-1.84c-.106-.109-.215-.109-.434-.109Zm24.582-6.715c-.105 0-.324 0-.43-.109a.52.52 0 0 1 0-.758l2.813-2.816-3.031-3.031-2.817 2.816a.526.526 0 0 1-.757 0 .526.526 0 0 1 0-.758l2.816-2.816-3.031-3.032-2.817 2.817a.526.526 0 0 1-.757 0 .526.526 0 0 1 0-.758l2.816-2.816L2.273 10.828c-.109-.105-.109-.215-.109-.215L0 .867V.648C0 .543.11.434.11.324c.105-.11.214-.11.324-.11h.109l9.746 2.169c.106 0 .215.11.215.11l32.488 32.484a.526.526 0 0 1 0 .757.52.52 0 0 1-.758 0L9.855 3.355 2.06 1.625 39.203 38.77a.526.526 0 0 1 0 .757.53.53 0 0 1-.762 0L1.301 2.383l1.73 7.797 25.34 25.34 3.793 3.789 3.246 3.25a.52.52 0 0 1 0 .757.526.526 0 0 1-.758 0L31.836 40.5l-2.813 2.816h-.328Zm14.078-14.078c-.105 0-.324 0-.43-.11a.52.52 0 0 1 0-.757l18.302-18.3 1.73-7.798L39.309 25.34a.52.52 0 0 1-.758 0 .526.526 0 0 1 0-.758L61.617 1.516 53.82 3.25l-18.3 18.3a.526.526 0 0 1-.758 0 .523.523 0 0 1 0-.757l18.41-18.41c.105-.11.215-.11.215-.11L63.133.11h.219c.105 0 .214.106.324.106.11.11.11.219.11.328v.215l-2.169 9.746c0 .11-.11.215-.11.215l-18.405 18.41c0 .11-.22.11-.329.11Zm0 0" style="stroke:none;fill-rule:nonzero;fill:#51565f;fill-opacity:1"/></svg>