<svg xmlns="http://www.w3.org/2000/svg" width="64" height="64"><path d="M28.438 32.133H6.805a3.418 3.418 0 0 0-3.414 3.414 3.42 3.42 0 0 0 3.414 3.418H20.19L2.25 56.906c-.645.645-1 1.5-1 2.414 0 .91.355 1.77 1 2.414.664.664 1.54 1 2.414 1 .875 0 1.75-.336 2.414-1L25.02 43.793V57.18a3.42 3.42 0 0 0 3.418 3.414c.91 0 1.769-.356 2.414-1 .644-.645 1-1.504 1-2.414V35.547c0-.91-.356-1.77-1-2.414a3.395 3.395 0 0 0-2.415-1Zm0 0" style="stroke:none;fill-rule:nonzero;fill:#8ae9ff;fill-opacity:1"/><path d="M4.664 63.984a4.62 4.62 0 0 1-3.297-1.367A4.62 4.62 0 0 1 0 59.32c0-1.246.484-2.418 1.367-3.3l15.809-15.805H6.805a4.672 4.672 0 0 1-4.664-4.668 4.671 4.671 0 0 1 4.664-4.664h21.633a4.64 4.64 0 0 1 3.296 1.367 4.634 4.634 0 0 1 1.368 3.297V57.18a4.62 4.62 0 0 1-1.368 3.297 4.634 4.634 0 0 1-3.297 1.367 4.672 4.672 0 0 1-4.667-4.664V46.809L7.965 62.617a4.636 4.636 0 0 1-3.3 1.367Zm2.14-30.601a2.166 2.166 0 0 0 0 4.332h13.387c.504 0 .961.305 1.157.77a1.253 1.253 0 0 1-.274 1.363L3.133 57.789c-.406.41-.633.953-.633 1.531a2.164 2.164 0 0 0 3.695 1.532L24.137 42.91a1.25 1.25 0 0 1 1.363-.273c.465.195.77.652.77 1.156V57.18a2.167 2.167 0 0 0 4.332 0V35.547c0-.578-.227-1.121-.637-1.527a2.136 2.136 0 0 0-1.527-.637Zm0 0" style="stroke:none;fill-rule:nonzero;fill:#248a9c;fill-opacity:1"/><path d="M62.75 4.68a3.416 3.416 0 0 0-5.828-2.414L38.98 20.207V6.82a3.42 3.42 0 0 0-3.417-3.414 3.4 3.4 0 0 0-2.415 1c-.644.645-1 1.5-1 2.414v21.63c0 .913.356 1.769 1 2.417.645.645 1.504 1 2.414 1h21.633a3.42 3.42 0 0 0 3.414-3.418 3.418 3.418 0 0 0-3.414-3.414H43.81L61.75 7.094c.645-.645 1-1.5 1-2.414Zm0 0" style="stroke:none;fill-rule:nonzero;fill:#8ae9ff;fill-opacity:1"/><path d="M57.195 33.117H35.562a4.643 4.643 0 0 1-3.296-1.367 4.636 4.636 0 0 1-1.368-3.3V6.82c0-1.246.485-2.418 1.368-3.3a4.67 4.67 0 0 1 7.965 3.3v10.367L56.034 1.383a4.668 4.668 0 0 1 6.598 0A4.62 4.62 0 0 1 64 4.68a4.62 4.62 0 0 1-1.367 3.297L46.824 23.785h10.371a4.671 4.671 0 0 1 4.664 4.664 4.672 4.672 0 0 1-4.664 4.668ZM35.562 4.657c-.578 0-1.12.222-1.527.632-.41.41-.637.953-.637 1.531v21.63c0 .577.227 1.124.637 1.53.406.41.95.637 1.528.637h21.632a2.17 2.17 0 0 0 2.164-2.168 2.169 2.169 0 0 0-2.164-2.164H43.81c-.504 0-.961-.305-1.157-.77a1.251 1.251 0 0 1 .274-1.363l17.94-17.941c.406-.41.633-.953.633-1.531a2.164 2.164 0 0 0-3.695-1.532L39.863 21.09a1.25 1.25 0 0 1-1.363.273 1.257 1.257 0 0 1-.77-1.156V6.82a2.167 2.167 0 0 0-2.167-2.164ZM28.375 50a1.25 1.25 0 0 1-1.25-1.25v-.344a1.25 1.25 0 1 1 2.5 0v.344a1.25 1.25 0 0 1-1.25 1.25Zm0-3.734a1.25 1.25 0 0 1-1.25-1.25V35.93a1.251 1.251 0 0 1 2.5 0v9.086a1.25 1.25 0 0 1-1.25 1.25Zm0 0" style="stroke:none;fill-rule:nonzero;fill:#248a9c;fill-opacity:1"/></svg>