<svg xmlns="http://www.w3.org/2000/svg" width="64" height="64"><path d="M59 60H33c-.55 0-1-.45-1-1V38c0-.55.45-1 1-1h26c.55 0 1 .45 1 1v21c0 .55-.45 1-1 1Zm-25-2h24V39H34Zm0 0" style="stroke:none;fill-rule:nonzero;fill:#f57c00;fill-opacity:1"/><path d="M45 49c-.266 0-.52-.102-.71-.29a1.008 1.008 0 0 1 0-1.42l1.3-1.29-1.3-1.3a1.002 1.002 0 0 1 0-1.41L45.577 42l-1.289-1.29A1.046 1.046 0 0 1 44 40c0-.266.102-.52.29-.71l2-2a1.01 1.01 0 0 1 1.42 0 1.01 1.01 0 0 1 0 1.42L46.423 40l1.289 1.29c.187.19.289.444.289.71a.994.994 0 0 1-.29.7l-1.3 1.3 1.3 1.29a1 1 0 0 1 0 1.41l-2 2a1 1 0 0 1-.71.3Zm0 0" style="stroke:none;fill-rule:nonzero;fill:#f57c00;fill-opacity:1"/><path d="M46 56a2.998 2.998 0 0 1-2.809-4.16l.508-1.281a2.48 2.48 0 0 1 4.602 0l.508 1.28A2.998 2.998 0 0 1 46 56Zm0-5a.47.47 0 0 0-.441.3L45 52.59a1 1 0 0 0 .11 1c.199.27.515.426.85.426.333 0 .65-.157.849-.426.214-.29.257-.672.113-1l-.524-1.29A.468.468 0 0 0 46 51Zm13-12H33c-.422 0-.797-.266-.941-.66a1.006 1.006 0 0 1 .3-1.11l6-5c.18-.148.407-.23.641-.23h14c.234 0 .46.082.64.23l6 5c.325.27.442.715.301 1.11-.144.394-.52.66-.941.66Zm-23.238-2h20.476l-3.597-3H39.359Zm0 0" style="stroke:none;fill-rule:nonzero;fill:#f57c00;fill-opacity:1"/><path d="M46 38c-.55 0-1-.45-1-1v-4c0-.55.45-1 1-1s1 .45 1 1v4c0 .55-.45 1-1 1Zm0 0" style="stroke:none;fill-rule:nonzero;fill:#f57c00;fill-opacity:1"/><path d="M21.781 55.09a5.004 5.004 0 0 1-4.582-3L4.56 23.828a5.001 5.001 0 0 1 2.52-6.598l20.171-9a.999.999 0 0 1 .82 1.77L7.898 19a3.01 3.01 0 0 0-1.597 1.68A3.007 3.007 0 0 0 6.379 23L19 51.32a2.998 2.998 0 0 0 4 1.52l5.602-2.5a1.002 1.002 0 0 1 1.265.523c.215.485.02 1.051-.445 1.297l-5.602 2.5a4.87 4.87 0 0 1-2.039.43Zm0 0" style="stroke:none;fill-rule:nonzero;fill:#999;fill-opacity:1"/><path d="M16.738 22.68a1 1 0 0 1-.918-.602 1 1 0 0 1-.02-.765.999.999 0 0 1 .528-.551l8.211-3.672a1.003 1.003 0 0 1 .82 1.832l-8.218 3.668a.946.946 0 0 1-.403.09Zm-.297 6.699a1.007 1.007 0 0 1-1.003-.774A1.005 1.005 0 0 1 16 27.47l6.781-3a1 1 0 0 1 .82 1.82l-6.78 3a.997.997 0 0 1-.38.09Zm2.449 5.473a1.002 1.002 0 0 1-.972-.793.99.99 0 0 1 .562-1.118l2.29-1a.999.999 0 0 1 .82 1.82l-2.29 1c-.128.06-.269.087-.41.09Zm0 0" style="stroke:none;fill-rule:nonzero;fill:#666;fill-opacity:1"/><path d="M29 45.488a.736.736 0 0 1-.262 0L22.352 43.7a5.002 5.002 0 0 1-3.512-6.129L27 7.672a5 5 0 0 1 6.14-3.512l23.17 6.34a4.884 4.884 0 0 1 3 2.328c.664 1.152.84 2.52.492 3.8l-3.621 13.27a.998.998 0 0 1-1.93-.52l3.648-13.269c.211-.77.106-1.59-.289-2.28a2.934 2.934 0 0 0-1.82-1.4L32.65 6.08A3.004 3.004 0 0 0 29 8.198l-8.23 29.89a3 3 0 0 0 2.101 3.692l6.39 1.75A.997.997 0 0 1 29 45.488Zm0 0" style="stroke:none;fill-rule:nonzero;fill:#999;fill-opacity:1"/><path d="M47.46 17.36a1.1 1.1 0 0 1-.269 0L38.511 15a.99.99 0 0 1-.605-.469.998.998 0 0 1-.097-.761A1.002 1.002 0 0 1 39 13l8.68 2.379c.55.074.941.578.87 1.133-.073.55-.577.941-1.128.867Zm1.31 6.581c-.09.008-.18.008-.27 0L34 20a1.039 1.039 0 0 1 .559-2L49 22c.55.07.941.578.871 1.129a1.011 1.011 0 0 1-1.133.871Zm-1.59 5.789a.715.715 0 0 1-.258 0l-14.473-4a1.006 1.006 0 0 1-.742-.714 1.01 1.01 0 0 1 .285-.993A1.01 1.01 0 0 1 33 23.809l14.46 4A1 1 0 0 1 48.148 29a.996.996 0 0 1-.968.73ZM34.55 32.5a.736.736 0 0 1-.26 0l-3.419-.941a1 1 0 0 1-.523-1.719 1.003 1.003 0 0 1 1.043-.2l3.418.938c.554.074.941.578.87 1.133-.07.55-.577.941-1.128.867Zm0 0" style="stroke:none;fill-rule:nonzero;fill:#666;fill-opacity:1"/></svg>