<svg xmlns="http://www.w3.org/2000/svg" xmlns:xlink="http://www.w3.org/1999/xlink" width="64" height="64"><defs><clipPath id="b"><path d="M0 0h64v64H0z"/></clipPath><clipPath id="c"><path d="M0 0h64v64H0z"/></clipPath><clipPath id="d"><path d="M0 0h64v64H0z"/></clipPath><clipPath id="e"><path d="M0 0h64v64H0z"/></clipPath><clipPath id="f"><path d="M0 0h64v64H0z"/></clipPath><clipPath id="g"><path d="M0 0h64v64H0z"/></clipPath><clipPath id="h"><path d="M0 0h64v64H0z"/></clipPath><clipPath id="i"><path d="M0 0h64v64H0z"/></clipPath><clipPath id="j"><path d="M0 0h64v64H0z"/></clipPath><mask id="l"><g filter="url(#a)"><path d="M0 0h64v64H0z" style="fill:#000;fill-opacity:.2;stroke:none"/></g></mask><mask id="n"><g filter="url(#a)"><path d="M0 0h64v64H0z" style="fill:#000;fill-opacity:.2;stroke:none"/></g></mask><mask id="p"><g filter="url(#a)"><path d="M0 0h64v64H0z" style="fill:#000;fill-opacity:.1;stroke:none"/></g></mask><mask id="r"><g filter="url(#a)"><path d="M0 0h64v64H0z" style="fill:#000;fill-opacity:.4;stroke:none"/></g></mask><mask id="t"><g filter="url(#a)"><path d="M0 0h64v64H0z" style="fill:#000;fill-opacity:.1;stroke:none"/></g></mask><mask id="v"><g filter="url(#a)"><path d="M0 0h64v64H0z" style="fill:#000;fill-opacity:.1;stroke:none"/></g></mask><mask id="x"><g filter="url(#a)"><path d="M0 0h64v64H0z" style="fill:#000;fill-opacity:.2;stroke:none"/></g></mask><mask id="z"><g filter="url(#a)"><path d="M0 0h64v64H0z" style="fill:#000;fill-opacity:.2;stroke:none"/></g></mask><mask id="B"><g filter="url(#a)"><path d="M0 0h64v64H0z" style="fill:#000;fill-opacity:.2;stroke:none"/></g></mask><g id="k" clip-path="url(#b)"><path d="M60 33c0 15.465-12.535 28-28 28S4 48.465 4 33 16.535 5 32 5s28 12.535 28 28Zm0 0" style="stroke:none;fill-rule:nonzero;fill:#000;fill-opacity:1"/></g><g id="m" clip-path="url(#c)"><path d="M32 4C16.535 4 4 16.535 4 32c.004.164.012.328.016.492C4.293 17.234 16.738 5.008 32 5c15.258.012 27.7 12.238 27.973 27.492.011-.164.02-.328.027-.492C60 16.535 47.465 4 32 4Zm0 0" style="stroke:none;fill-rule:nonzero;fill:#fff;fill-opacity:1"/></g><g id="o" clip-path="url(#d)"><path d="M30.531 13.031a21.58 21.58 0 0 0-2.84.223c-7.18 1.055-11.777 4.988-17.668 12.101C7.63 28.242 5.512 31.727 4 34.398c.05.989.156 1.97.313 2.946C8.444 31.62 19.956 23.304 22.55 27.03c2.965 4.274-5.582 9.766-4.434 11.38 1.227 1.73 6.613-.716 11.61-1.075 5.578-.398 8.543 1.328 12.27 4.191-.938-1.77-1.552-3.062-1.911-4.332-.742-2.64 1.238-5.656 1.98-7.101 1.176-2.293 2.168-5.492 3.918-7.219 3.063-3.02 8.41-4.586 13.133-6.152 1.477-.493 2.79-.387 4.328-.723-1.43-.8-3.215-1.098-4.675-1.117-7.774-.117-12.516 1.062-15.653.722-3.98-.433-7.703-2.628-12.586-2.574Zm0 0" style="stroke:none;fill-rule:evenodd;fill:#000;fill-opacity:1"/></g><g id="q" clip-path="url(#e)"><path d="M33.96 19.398a1.993 1.993 0 0 1-2.35 1.563 2.01 2.01 0 0 1-1.57-2.36 1.993 1.993 0 0 1 2.35-1.562 2.01 2.01 0 0 1 1.57 2.36Zm0 0" style="stroke:none;fill-rule:nonzero;fill:#fff;fill-opacity:1"/></g><g id="s" clip-path="url(#f)"><path d="M47.105 18.094c3.348-.934 9.122-3.211 13.333-3.742-.778-.145-2.18.093-2.954.175-4.16.825-8.218 2.48-10.379 3.567Zm0 0" style="stroke:none;fill-rule:evenodd;fill:#000;fill-opacity:1"/></g><g id="u" clip-path="url(#g)"><path d="M30.066 19.496a.968.968 0 0 0-.027.106 2.008 2.008 0 0 0 1.57 2.359 1.993 1.993 0 0 0 2.352-1.563 2 2 0 0 0-.027-.886 1.99 1.99 0 0 1-2.325 1.449 2.004 2.004 0 0 1-1.543-1.465Zm0 0" style="stroke:none;fill-rule:nonzero;fill:#000;fill-opacity:1"/></g><g id="w" clip-path="url(#h)"><path d="M44.594 30.457c-8.836 0-16 7.04-16 15.723 0 8.68 7.164 15.718 16 15.718s16-7.039 16-15.718c0-8.684-7.164-15.723-16-15.723Zm0 0" style="stroke:none;fill-rule:nonzero;fill:#000;fill-opacity:1"/></g><g id="y" clip-path="url(#i)"><path d="M44.594 33.828c-3.785 0-6.856 3.016-6.856 6.734 0 3.723 3.07 6.739 6.856 6.739 3.789 0 6.855-3.016 6.855-6.739 0-3.718-3.066-6.734-6.855-6.734Zm0 1.121c1.894 0 3.43 1.508 3.43 3.371 0 1.86-1.536 3.367-3.43 3.367-1.895 0-3.43-1.507-3.43-3.367 0-1.863 1.535-3.37 3.43-3.37Zm0 0" style="stroke:none;fill-rule:nonzero;fill:#000;fill-opacity:1"/><path d="M41.164 45.055v11.152l3.43 2.32 3.43-2.32v-.973l1.14-1.12-1.14-1.126v-1.195l2.285-1.684-2.286-1.687v-3.367Zm1.145 3.367h1.14v6.738h-1.14Zm0 0" style="stroke:none;fill-rule:nonzero;fill:#000;fill-opacity:1"/></g><g id="A" clip-path="url(#j)"><path d="M44.594 29.898c-8.836 0-16 7.036-16 15.72l.011.226c.184-8.547 7.29-15.38 15.989-15.387 8.738.008 15.855 6.898 15.988 15.484l.012-.324c0-8.683-7.164-15.719-16-15.719Zm0 0" style="stroke:none;fill-rule:nonzero;fill:#fff;fill-opacity:1"/></g><filter id="a" width="100%" height="100%" x="0%" y="0%" filterUnits="objectBoundingBox"><feColorMatrix in="SourceGraphic" values="0 0 0 0 1 0 0 0 0 1 0 0 0 0 1 0 0 0 1 0"/></filter></defs><use xlink:href="#k" mask="url(#l)"/><path d="M60.004 32.004c0 9.129-4.371 17.242-11.133 22.351-4.691 3.547-9.148-3.421-15.48-3.421-14.547 0-27.856-2.477-29.258-16.25A27.232 27.232 0 0 1 4 32.004C4 16.539 16.54 4 32.004 4c15.465 0 28 12.54 28 28.004Zm0 0" style="stroke:none;fill-rule:nonzero;fill:#42a5f5;fill-opacity:1"/><use xlink:href="#m" mask="url(#n)"/><use xlink:href="#o" mask="url(#p)"/><path d="M21.305 23.672C16.719 23.285 8.168 29.59 4.277 35.68 6.113 49.54 17.891 59.918 31.871 60c.703-.004 1.41-.023 2.113-.066.004 0 .008 0 .016-.004a27.993 27.993 0 0 0 15.164-5.817c-.613-4.008-2.691-8.437-7.168-13.582-5.637-6.59-14.297-15.793-20.691-16.86Zm0 0" style="stroke:none;fill-rule:evenodd;fill:#e4e4e4;fill-opacity:1"/><path d="M30.531 12.031c-.902.012-1.847.078-2.84.227-7.18 1.05-11.777 4.988-17.668 12.097C7.63 27.246 5.512 30.727 4 33.398c.05.989.156 1.973.313 2.946 4.132-5.719 15.644-14.04 18.238-10.309 2.965 4.27-5.582 9.762-4.434 11.375 1.227 1.73 6.613-.71 11.61-1.07 5.578-.403 8.543 1.324 12.27 4.187-.938-1.77-1.552-3.062-1.911-4.332-.742-2.64 1.238-5.656 1.98-7.101 1.176-2.293 2.168-5.492 3.918-7.219 3.063-3.02 8.41-4.582 13.133-6.152 1.477-.489 2.79-.387 4.328-.723-1.43-.8-3.215-1.094-4.675-1.117-7.774-.113-12.516 1.062-15.653.722-3.98-.433-7.703-2.628-12.586-2.574Zm0 0" style="stroke:none;fill-rule:evenodd;fill:#424242;fill-opacity:1"/><use xlink:href="#q" mask="url(#r)"/><path d="M11.352 40.063c-1.188-.02-3.805 1.113-5.512 1.89a27.962 27.962 0 0 0 2.719 5.344c1.113-3.57 3.914-6.067 3.332-7.024-.086-.14-.274-.207-.54-.21Zm0 0" style="stroke:none;fill-rule:evenodd;fill:#424242;fill-opacity:1"/><use xlink:href="#s" mask="url(#t)"/><path d="M39.059 21.125c1.648-.855 2.445-1.566 6.296-2.531 3.739-.934 8.387-3.192 12.13-4.067-6.403.774-14.126 2.387-18.426 6.598Zm0 0" style="stroke:none;fill-rule:evenodd;fill:#ffc107;fill-opacity:1"/><use xlink:href="#u" mask="url(#v)"/><use xlink:href="#w" mask="url(#x)"/><path d="M44.594 29.898c-8.836 0-16 7.036-16 15.72 0 8.679 7.164 15.718 16 15.718s16-7.04 16-15.719c0-8.683-7.164-15.719-16-15.719Zm0 0" style="stroke:none;fill-rule:nonzero;fill:#5ca742;fill-opacity:1"/><use xlink:href="#y" mask="url(#z)"/><path d="M44.594 33.266c-3.785 0-6.856 3.015-6.856 6.738 0 3.719 3.07 6.734 6.856 6.734 3.789 0 6.855-3.015 6.855-6.734 0-3.723-3.066-6.738-6.855-6.738Zm0 1.12c1.894 0 3.43 1.512 3.43 3.372 0 1.86-1.536 3.367-3.43 3.367-1.895 0-3.43-1.508-3.43-3.367 0-1.86 1.535-3.371 3.43-3.371Zm0 0" style="stroke:none;fill-rule:nonzero;fill:#fff;fill-opacity:1"/><path d="M41.164 44.492v11.156l3.43 2.32 3.43-2.32v-.976l1.14-1.121-1.14-1.121v-1.2l2.285-1.683-2.286-1.684v-3.37Zm1.145 3.371h1.14v6.735h-1.14Zm0 0" style="stroke:none;fill-rule:nonzero;fill:#fff;fill-opacity:1"/><use xlink:href="#A" mask="url(#B)"/></svg>