<svg xmlns="http://www.w3.org/2000/svg" width="64" height="64"><path d="M64 32.047c0 17.68-14.328 32.008-32 32.008S0 49.727 0 32.047c0-17.672 14.328-32 32-32s32 14.328 32 32Zm0 0" style="stroke:none;fill-rule:evenodd;fill:#dc322f;fill-opacity:1"/><path d="M36 8.094h-8v24.008h8Zm0 0" style="stroke:none;fill-rule:nonzero;fill:#fff;fill-opacity:.901961"/><path d="M24 9.375C14.672 12.672 8 21.547 8 32c0 13.258 10.742 24 24 24s24-10.742 24-24c0-10.453-6.672-19.328-16-22.625v8.875c4.773 2.766 8 7.836 8 13.75 0 8.836-7.164 16-16 16s-16-7.164-16-16c0-5.914 3.227-10.984 8-13.75Zm0 0" style="stroke:none;fill-rule:evenodd;fill:#fff;fill-opacity:.901961"/></svg>