<svg xmlns="http://www.w3.org/2000/svg" width="64" height="64"><path d="M64 32c0 17.672-14.328 32-32 32S0 49.672 0 32 14.328 0 32 0s32 14.328 32 32Zm0 0" style="stroke:none;fill-rule:nonzero;fill:#fca;fill-opacity:1"/><path d="M34.84 13.8a3.777 3.777 0 0 1 5.344 0l10.02 10.02a3.777 3.777 0 0 1 0 5.344L25.71 53.656a3.777 3.777 0 0 1-5.344 0l-10.02-10.02a3.777 3.777 0 0 1 0-5.343Zm0 0" style="stroke:none;fill-rule:nonzero;fill:#d68828;fill-opacity:1"/><path d="M34.688 13.95a3.784 3.784 0 0 1 5.343 0l10.02 10.023a3.772 3.772 0 0 1 0 5.34L25.559 53.808c-1.477 1.472-16.836-13.89-15.364-15.363Zm0 0" style="stroke:none;fill-rule:nonzero;fill:#f9f29a;fill-opacity:1"/><path d="M34.316 13.988a3.776 3.776 0 0 1 5.34-.05l10.121 9.917a3.785 3.785 0 0 1 .051 5.348l-22.191 22.64c-1.461 1.49-16.825-13.873-15.364-15.363Zm0 0" style="stroke:none;fill-rule:nonzero;fill:#d68828;fill-opacity:1"/><path d="M35.871 12.305a3.78 3.78 0 0 1 5.344-.051l10.12 9.922a3.78 3.78 0 0 1 .052 5.344L29.949 49.648c-2.781 2.782-17.875-13.074-15.539-15.41Zm0 0" style="stroke:none;fill-rule:nonzero;fill:#e79e2d;fill-opacity:1"/><path d="M38.293 10.348a3.78 3.78 0 0 1 5.344 0l10.015 10.02a3.78 3.78 0 0 1 .004 5.343l-9.984 9.984-15.363-15.363Zm0 0" style="stroke:none;fill-rule:nonzero;fill:#448590;fill-opacity:1"/><path d="M38.293 10.348a3.78 3.78 0 0 1 5.344 0l10.015 10.02a3.78 3.78 0 0 1 .004 5.343Zm0 0" style="stroke:none;fill-rule:nonzero;fill:#357180;fill-opacity:1"/></svg>