<svg xmlns="http://www.w3.org/2000/svg" width="64" height="64"><path d="m9 9 2 2h8V4a1 1 0 0 0-1-1H6a1 1 0 0 0-1 1v5Zm0 0" style="fill-rule:nonzero;fill:#2ca9bc;fill-opacity:1;stroke-width:2;stroke-linecap:round;stroke-linejoin:round;stroke:#000;stroke-opacity:1;stroke-miterlimit:4" transform="scale(2.66667)"/><path d="m3 19 2 2 4-4" style="fill:none;stroke-width:2;stroke-linecap:round;stroke-linejoin:round;stroke:#000;stroke-opacity:1;stroke-miterlimit:4" transform="scale(2.66667)"/><path d="M3 15v-5a1 1 0 0 1 1-1h5l2 2h9a1 1 0 0 1 1 1v8a1 1 0 0 1-1 1h-9" style="fill:none;stroke-width:2;stroke-linecap:round;stroke-linejoin:round;stroke:#000;stroke-opacity:1;stroke-miterlimit:4" transform="scale(2.66667)"/></svg>