<svg xmlns="http://www.w3.org/2000/svg" xmlns:xlink="http://www.w3.org/1999/xlink" width="64" height="64"><defs><clipPath id="b"><path d="M0 0h64v64H0z"/></clipPath><clipPath id="c"><path d="M0 0h64v64H0z"/></clipPath><clipPath id="d"><path d="M0 0h64v64H0z"/></clipPath><clipPath id="e"><path d="M0 0h64v64H0z"/></clipPath><mask id="g"><g filter="url(#a)"><path d="M0 0h64v64H0z" style="fill:#000;fill-opacity:.2;stroke:none"/></g></mask><mask id="i"><g filter="url(#a)"><path d="M0 0h64v64H0z" style="fill:#000;fill-opacity:.2;stroke:none"/></g></mask><mask id="k"><g filter="url(#a)"><path d="M0 0h64v64H0z" style="fill:#000;fill-opacity:.2;stroke:none"/></g></mask><mask id="m"><g filter="url(#a)"><path d="M0 0h64v64H0z" style="fill:#000;fill-opacity:.08;stroke:none"/></g></mask><g id="f" clip-path="url(#b)"><path d="M9.277 48.023a4.875 4.875 0 0 1-4.87-4.87 4.877 4.877 0 0 1 4.87-4.872 4.88 4.88 0 0 1 4.871 4.871 4.877 4.877 0 0 1-4.87 4.871Zm0 0" style="stroke:none;fill-rule:nonzero;fill:#171716;fill-opacity:1"/></g><g id="h" clip-path="url(#c)"><path d="M32 48.023a4.875 4.875 0 0 1-4.871-4.87A4.877 4.877 0 0 1 32 38.28a4.877 4.877 0 0 1 4.871 4.871A4.875 4.875 0 0 1 32 48.023Zm0 0" style="stroke:none;fill-rule:nonzero;fill:#171716;fill-opacity:1"/></g><g id="j" clip-path="url(#d)"><path d="M54.723 48.023a4.877 4.877 0 0 1-4.871-4.87 4.88 4.88 0 0 1 4.87-4.872 4.877 4.877 0 0 1 4.872 4.871 4.875 4.875 0 0 1-4.871 4.871Zm0 0" style="stroke:none;fill-rule:nonzero;fill:#171716;fill-opacity:1"/></g><g id="l" clip-path="url(#e)"><path d="M18.55 50.938v-12.02L6.532 50.938ZM22.723 35.36v15.578h18.554V16.194L22.723 34.746ZM57.469 0l-12.02 12.023v38.915H64V0Zm0 0" style="stroke:none;fill-rule:nonzero;fill:#040000;fill-opacity:1"/></g><filter id="a" width="100%" height="100%" x="0%" y="0%" filterUnits="objectBoundingBox"><feColorMatrix in="SourceGraphic" values="0 0 0 0 1 0 0 0 0 1 0 0 0 0 1 0 0 0 1 0"/></filter></defs><path d="M18.55 1.258v48.426c0 .687-.566 1.254-1.257 1.254H1.258A1.261 1.261 0 0 1 0 49.684V1.258C0 .566.566 0 1.258 0h16.035c.691 0 1.258.566 1.258 1.258Zm0 0" style="stroke:none;fill-rule:nonzero;fill:#f5ab50;fill-opacity:1"/><path d="M12.105 30.5h-5.66a3.786 3.786 0 0 1-3.773-3.773V9.747c0-2.075 1.7-3.77 3.773-3.77h5.66a3.783 3.783 0 0 1 3.774 3.77v16.98c0 2.074-1.7 3.773-3.774 3.773Zm0 0" style="stroke:none;fill-rule:nonzero;fill:#f5ab50;fill-opacity:1"/><path d="M14.07 30.5H4.48a1.815 1.815 0 0 1-1.808-1.809V7.781c0-.992.816-1.804 1.808-1.804h9.59c.996 0 1.809.812 1.809 1.804v20.91c0 .997-.813 1.809-1.809 1.809Zm0 0" style="stroke:none;fill-rule:nonzero;fill:#fff;fill-opacity:1"/><use xlink:href="#f" mask="url(#g)"/><path d="M12.688 43.152a3.41 3.41 0 1 1-6.822-.001 3.41 3.41 0 0 1 6.822.001Zm0 0" style="stroke:none;fill-rule:nonzero;fill:#fff;fill-opacity:1"/><path d="M5.031 10.063h8.489v2.042H5.03ZM5.031 16.195h8.489v2.043H5.03ZM5.031 22.324h8.489v2.043H5.03Zm0 0" style="stroke:none;fill-rule:nonzero;fill:#f5ab50;fill-opacity:1"/><path d="M0 33.504h18.55v1.851H0Zm0 0" style="stroke:none;fill-rule:nonzero;fill:#fff;fill-opacity:1"/><path d="M41.27 1.258v48.426c0 .687-.555 1.254-1.254 1.254H23.984c-.699 0-1.254-.567-1.254-1.254V1.258C22.73.566 23.285 0 23.984 0h16.032c.699 0 1.254.566 1.254 1.258Zm0 0" style="stroke:none;fill-rule:nonzero;fill:#ed7b84;fill-opacity:1"/><path d="M34.828 30.5h-5.656a3.784 3.784 0 0 1-3.774-3.773V9.747a3.78 3.78 0 0 1 3.774-3.77h5.656a3.78 3.78 0 0 1 3.774 3.77v16.98a3.784 3.784 0 0 1-3.774 3.773Zm0 0" style="stroke:none;fill-rule:nonzero;fill:#ed7b84;fill-opacity:1"/><path d="M36.797 30.5h-9.594a1.811 1.811 0 0 1-1.805-1.809V7.781a1.81 1.81 0 0 1 1.805-1.804h9.594a1.81 1.81 0 0 1 1.805 1.804v20.91c0 .997-.813 1.809-1.805 1.809Zm0 0" style="stroke:none;fill-rule:nonzero;fill:#fff;fill-opacity:1"/><use xlink:href="#h" mask="url(#i)"/><path d="M35.41 43.152a3.41 3.41 0 1 1-6.822-.001 3.41 3.41 0 0 1 6.822.001Zm0 0" style="stroke:none;fill-rule:nonzero;fill:#fff;fill-opacity:1"/><path d="M27.754 10.063h8.492v2.042h-8.492ZM27.754 16.195h8.492v2.043h-8.492ZM27.754 22.324h8.492v2.043h-8.492Zm0 0" style="stroke:none;fill-rule:nonzero;fill:#ed7b84;fill-opacity:1"/><path d="M22.723 33.504h18.554v1.855H22.723Zm0 0" style="stroke:none;fill-rule:nonzero;fill:#fff;fill-opacity:1"/><path d="M64 1.258v48.426c0 .687-.566 1.254-1.258 1.254H46.707a1.261 1.261 0 0 1-1.258-1.254V1.258C45.45.566 46.016 0 46.707 0h16.035C63.434 0 64 .566 64 1.258Zm0 0" style="stroke:none;fill-rule:nonzero;fill:#7dc380;fill-opacity:1"/><path d="M57.555 30.5h-5.66a3.786 3.786 0 0 1-3.774-3.773V9.747c0-2.075 1.7-3.77 3.774-3.77h5.66a3.783 3.783 0 0 1 3.773 3.77v16.98c0 2.074-1.7 3.773-3.773 3.773Zm0 0" style="stroke:none;fill-rule:nonzero;fill:#7dc380;fill-opacity:1"/><path d="M59.52 30.5h-9.59a1.812 1.812 0 0 1-1.809-1.809V7.781c0-.992.813-1.804 1.809-1.804h9.59c.992 0 1.808.812 1.808 1.804v20.91c0 .997-.816 1.809-1.808 1.809Zm0 0" style="stroke:none;fill-rule:nonzero;fill:#fff;fill-opacity:1"/><use xlink:href="#j" mask="url(#k)"/><path d="M58.133 43.152a3.41 3.41 0 1 1-6.822-.001 3.41 3.41 0 0 1 6.822.001Zm0 0" style="stroke:none;fill-rule:nonzero;fill:#fff;fill-opacity:1"/><path d="M50.48 10.063h8.489v2.042H50.48ZM50.48 16.195h8.489v2.043H50.48ZM50.48 22.324h8.489v2.043H50.48Zm0 0" style="stroke:none;fill-rule:nonzero;fill:#7dc380;fill-opacity:1"/><path d="M45.45 33.504H64v1.855H45.45Zm0 0" style="stroke:none;fill-rule:nonzero;fill:#fff;fill-opacity:1"/><use xlink:href="#l" mask="url(#m)"/></svg>