<svg xmlns="http://www.w3.org/2000/svg" width="64" height="64"><path d="m17.914 41.266 1.219 2.468c.027.051.078.09.137.098l2.726.398c.149.02.207.204.102.31l-1.973 1.92a.198.198 0 0 0-.055.165l.47 2.71c.023.153-.134.267-.267.196l-2.437-1.281a.19.19 0 0 0-.172 0l-2.434 1.281a.183.183 0 0 1-.265-.195l.465-2.711a.198.198 0 0 0-.055-.164l-1.969-1.922a.18.18 0 0 1 .102-.309l2.722-.398a.187.187 0 0 0 .137-.098l1.219-2.468a.183.183 0 0 1 .328 0Zm33.113 11.199 1.22 2.469c.026.054.077.09.136.097l2.726.399c.149.02.207.203.102.312l-1.973 1.918a.184.184 0 0 0-.05.164l.464 2.711c.024.153-.132.266-.265.195l-2.438-1.28a.19.19 0 0 0-.172 0l-2.433 1.28a.183.183 0 0 1-.266-.195l.465-2.71a.186.186 0 0 0-.055-.165l-1.968-1.918a.182.182 0 0 1 .101-.312l2.723-.399a.172.172 0 0 0 .136-.097l1.22-2.47a.183.183 0 0 1 .327 0Zm0 0" style="stroke:none;fill-rule:nonzero;fill:#f9de8f;fill-opacity:1"/><path d="M22.965 22.727a2.997 2.997 0 1 1-5.996 0 2.997 2.997 0 0 1 3-2.997 2.994 2.994 0 0 1 2.996 2.997ZM44.387 12.2a3 3 0 1 1-3-3 3 3 0 0 1 3 3Zm0 0" style="stroke:none;fill-rule:nonzero;fill:#67d1d3;fill-opacity:1"/><path d="M62.746 29.785a2.997 2.997 0 0 1-3 2.996 2.994 2.994 0 0 1-2.996-2.996 2.994 2.994 0 0 1 2.996-2.996c1.656 0 3 1.34 3 2.996Zm0 0" style="stroke:none;fill-rule:nonzero;fill:#f09ea0;fill-opacity:1"/><path d="M31.195 11.316c1.27-1.105 2.707-2.359 2.715-4.363.008-1.996-1.41-3.246-2.656-4.348-.133-.113-.266-.23-.395-.347a1.176 1.176 0 1 0-1.578 1.746c.137.125.278.246.414.367 1.16 1.024 1.864 1.707 1.86 2.57 0 .875-.723 1.567-1.907 2.602-1.28 1.117-2.734 2.387-2.761 4.43-.024 2.035 1.394 3.355 2.648 4.52 1.055.98 1.969 1.827 1.969 2.905 0 1.032-.852 1.844-1.836 2.782-1.223 1.168-2.605 2.488-2.625 4.59-.016 2.078 1.324 3.453 2.504 4.668.926.949 1.726 1.773 1.691 2.707-.031.847-.703 1.43-1.793 2.312-1.152.934-2.586 2.094-2.66 4.055-.078 1.96 1.238 3.32 2.395 4.515.98 1.012 1.824 1.883 1.797 2.91-.024.91-.711 1.567-1.844 2.536-1.14.984-2.567 2.207-2.613 4.172-.016.652.5 1.19 1.148 1.207h.031c.637 0 1.16-.508 1.176-1.149.02-.86.691-1.496 1.793-2.445 1.164-.996 2.605-2.238 2.66-4.258.055-2.016-1.277-3.395-2.453-4.61-.953-.984-1.777-1.831-1.738-2.788.031-.848.703-1.434 1.793-2.313 1.152-.934 2.586-2.098 2.66-4.055.074-1.941-1.215-3.27-2.356-4.441-.992-1.016-1.843-1.895-1.836-3.004.008-1.105.883-1.941 1.895-2.906 1.203-1.149 2.562-2.45 2.562-4.48.004-2.106-1.44-3.45-2.718-4.637-1.024-.95-1.907-1.774-1.895-2.762.012-.926.746-1.633 1.953-2.688Zm-20.55 5.45c-1.024-.95-1.907-1.774-1.895-2.762.012-.926.746-1.633 1.953-2.688 1.27-1.105 2.707-2.363 2.715-4.363.004-1.996-1.41-3.246-2.66-4.348-.133-.117-.262-.23-.395-.351a1.175 1.175 0 0 0-1.66.09 1.171 1.171 0 0 0 .086 1.66c.137.125.274.246.414.367 1.16 1.024 1.863 1.707 1.86 2.57-.004.875-.723 1.567-1.907 2.602-1.285 1.117-2.738 2.387-2.761 4.43-.024 2.035 1.394 3.351 2.644 4.52 1.059.98 1.973 1.827 1.969 2.905 0 1.028-.848 1.84-1.832 2.782-1.223 1.168-2.606 2.488-2.625 4.59-.004.648.52 1.18 1.168 1.183h.008a1.18 1.18 0 0 0 1.18-1.164c.007-1.105.882-1.941 1.894-2.906 1.199-1.149 2.562-2.45 2.562-4.485 0-2.101-1.445-3.445-2.718-4.632Zm39.32 21.691c-1.153.934-2.586 2.094-2.664 4.055a1.175 1.175 0 0 0 1.133 1.222h.043c.632 0 1.152-.496 1.175-1.132.035-.848.703-1.434 1.793-2.313 1.153-.934 2.586-2.098 2.664-4.055.075-1.941-1.218-3.27-2.359-4.441-.988-1.016-1.844-1.895-1.832-3.004.008-1.105.883-1.941 1.895-2.906 1.199-1.149 2.562-2.45 2.562-4.485 0-2.101-1.445-3.445-2.719-4.632-1.023-.95-1.91-1.774-1.898-2.762.012-.926.746-1.633 1.957-2.688 1.265-1.105 2.707-2.363 2.71-4.367.009-1.992-1.405-3.242-2.655-4.344-.133-.117-.266-.23-.395-.351a1.18 1.18 0 0 0-1.664.09 1.175 1.175 0 0 0 .09 1.66c.136.125.273.246.41.367 1.16 1.024 1.867 1.707 1.863 2.57-.004.875-.722 1.567-1.91 2.602-1.281 1.117-2.734 2.387-2.758 4.43-.023 2.035 1.395 3.351 2.645 4.52 1.058.98 1.969 1.827 1.969 2.905 0 1.028-.852 1.84-1.836 2.782-1.22 1.168-2.606 2.488-2.621 4.59-.02 2.078 1.32 3.453 2.5 4.668.93.949 1.73 1.773 1.69 2.707-.03.847-.698 1.43-1.788 2.312ZM22.164 43.18l-2.207-.32-.988-2a1.353 1.353 0 0 0-1.219-.758c-.523 0-.988.293-1.219.757l-.988 2-2.207.32c-.516.079-.938.43-1.098.926a1.358 1.358 0 0 0 .344 1.395l1.598 1.559-.375 2.195c-.188 1.09.988 1.953 1.972 1.434l1.973-1.036 1.973 1.035a1.359 1.359 0 0 0 1.972-1.433l-.375-2.195 1.598-1.559a1.36 1.36 0 0 0 .344-1.395 1.356 1.356 0 0 0-1.098-.925Zm-2.86 2.558a1.355 1.355 0 0 0-.394 1.203l.125.727-.652-.344a1.354 1.354 0 0 0-1.266 0l-.652.344.125-.727c.074-.441-.07-.89-.39-1.203l-.532-.515.73-.11a1.34 1.34 0 0 0 1.024-.742l.328-.664.324.66c.2.406.582.684 1.028.746l.73.11Zm35.973 8.645-2.207-.324-.988-2a1.357 1.357 0 0 0-2.438 0l-.988 2-2.207.324a1.358 1.358 0 0 0-.754 2.316l1.598 1.559-.375 2.199c-.09.512.117 1.023.539 1.328a1.35 1.35 0 0 0 1.434.106l1.972-1.04 1.977 1.04c.98.511 2.16-.348 1.972-1.434l-.378-2.2L56.03 56.7a1.35 1.35 0 0 0 .344-1.394 1.345 1.345 0 0 0-1.098-.922Zm-2.859 2.554c-.32.313-.469.762-.39 1.204l.124.726-.652-.344a1.375 1.375 0 0 0-1.27 0l-.652.344.125-.73a1.359 1.359 0 0 0-.39-1.2l-.532-.515.735-.11c.441-.062.824-.34 1.023-.742l.324-.66.328.66c.2.403.582.68 1.024.742l.73.11ZM19.969 18.668a4.183 4.183 0 0 0-4.176 4.176c0 2.3 1.875 4.176 4.176 4.176 2.3 0 4.176-1.875 4.176-4.176s-1.875-4.176-4.176-4.176Zm0 5.996a1.822 1.822 0 0 1-1.82-1.82c0-1.004.816-1.82 1.82-1.82s1.82.816 1.82 1.82-.816 1.82-1.82 1.82ZM2.512 7.926c0-.692-.563-1.258-1.254-1.258A1.26 1.26 0 0 0 0 7.926a1.26 1.26 0 0 0 1.258 1.258 1.26 1.26 0 0 0 1.254-1.258Zm38.875.214a4.18 4.18 0 0 0-4.172 4.176 4.175 4.175 0 0 0 4.172 4.172 4.177 4.177 0 0 0 4.175-4.172 4.18 4.18 0 0 0-4.175-4.175Zm0 5.997a1.821 1.821 0 0 1 0-3.64c1.004 0 1.82.816 1.82 1.82 0 1.003-.816 1.82-1.82 1.82Zm18.359 11.59a4.183 4.183 0 0 0-4.176 4.175 4.183 4.183 0 0 0 4.176 4.176c2.3 0 4.176-1.875 4.176-4.176 0-2.3-1.875-4.175-4.176-4.175Zm0 5.996a1.822 1.822 0 0 1-1.82-1.82c0-1.005.816-1.821 1.82-1.821s1.82.816 1.82 1.82-.816 1.82-1.82 1.82Zm-45.219 3.664c.692 0 1.258-.563 1.258-1.254a1.26 1.26 0 0 0-1.258-1.258 1.26 1.26 0 0 0-1.257 1.258c0 .691.566 1.254 1.257 1.254Zm26.86-11.981a1.259 1.259 0 0 0 0 2.516 1.26 1.26 0 0 0 1.258-1.258 1.26 1.26 0 0 0-1.258-1.258ZM62.742 5.254A1.26 1.26 0 0 0 64 3.996a1.26 1.26 0 0 0-1.258-1.258 1.259 1.259 0 0 0 0 2.516ZM7.57 56.375a1.255 1.255 0 1 0 .003 2.51 1.255 1.255 0 0 0-.003-2.51Zm51.606-10.316a1.256 1.256 0 1 0-.004 2.512 1.256 1.256 0 0 0 .004-2.512Zm-19.606-1.18a1.257 1.257 0 1 0 0 2.512 1.255 1.255 0 0 0 0-2.512ZM2.434 34.469a1.255 1.255 0 1 0 .003 2.513 1.255 1.255 0 0 0-.003-2.513ZM22.152 7.61a1.259 1.259 0 0 0 0-2.516 1.26 1.26 0 0 0-1.257 1.258 1.26 1.26 0 0 0 1.257 1.257Zm0 0" style="stroke:none;fill-rule:nonzero;fill:#000;fill-opacity:1"/></svg>