<svg xmlns="http://www.w3.org/2000/svg" width="64" height="64"><path d="M32 5.332C17.273 5.332 5.332 17.273 5.332 32c0 14.727 11.941 26.668 26.668 26.668 14.727 0 26.668-11.941 26.668-26.668C58.668 17.273 46.727 5.332 32 5.332ZM32 40a8 8 0 1 1 0-16 8 8 0 0 1 0 16Zm0 0" style="stroke:none;fill-rule:nonzero;fill:#000;fill-opacity:1"/><path d="M32 5.332a26.356 26.356 0 0 0-9.867 1.895l5.332 18.265A8.008 8.008 0 0 1 32 24c1.66.008 3.277.52 4.64 1.465l5.333-18.238A26.343 26.343 0 0 0 32 5.332Zm0 53.336c3.379.008 6.73-.637 9.867-1.895l-5.332-18.265A8.008 8.008 0 0 1 32 40a8.211 8.211 0 0 1-4.64-1.465l-5.333 18.238A26.343 26.343 0 0 0 32 58.668ZM58.668 32a26.356 26.356 0 0 0-1.895-9.867l-18.265 5.332A8.008 8.008 0 0 1 40 32a8.211 8.211 0 0 1-1.465 4.64l18.238 5.333A26.343 26.343 0 0 0 58.668 32ZM5.332 32a26.356 26.356 0 0 0 1.895 9.867l18.265-5.332A8.008 8.008 0 0 1 24 32a8.211 8.211 0 0 1 1.465-4.64L7.227 22.026A26.343 26.343 0 0 0 5.332 32Zm0 0" style="stroke:none;fill-rule:nonzero;fill:#2ca9bc;fill-opacity:1"/></svg>