<svg xmlns="http://www.w3.org/2000/svg" xmlns:xlink="http://www.w3.org/1999/xlink" width="64" height="64"><defs><clipPath id="b"><path d="M0 0h64v64H0z"/></clipPath><clipPath id="c"><path d="M0 0h64v64H0z"/></clipPath><clipPath id="d"><path d="M0 0h64v64H0z"/></clipPath><mask id="f"><g filter="url(#a)"><path d="M0 0h64v64H0z" style="fill:#000;fill-opacity:.2;stroke:none"/></g></mask><mask id="h"><g filter="url(#a)"><path d="M0 0h64v64H0z" style="fill:#000;fill-opacity:.2;stroke:none"/></g></mask><mask id="j"><g filter="url(#a)"><path d="M0 0h64v64H0z" style="fill:#000;fill-opacity:.2;stroke:none"/></g></mask><g id="e" clip-path="url(#b)"><path d="M32 5C16.535 5 4 17.535 4 33s12.535 28 28 28 28-12.535 28-28S47.465 5 32 5Zm0 0" style="stroke:none;fill-rule:nonzero;fill:#000;fill-opacity:1"/></g><g id="g" clip-path="url(#c)"><path d="M32 11c-6.629 0-12 5.371-12 12s5.371 12 12 12 12-5.371 12-12-5.371-12-12-12Zm0 2c3.313 0 6 2.688 6 6 0 3.313-2.688 6-6 6-3.313 0-6-2.688-6-6 0-3.313 2.688-6 6-6Zm0 0" style="stroke:none;fill-rule:nonzero;fill:#000;fill-opacity:1"/><path d="M26 31v19.867L32 55l6-4.133v-1.734l2-2-2-2V43l4-3-4-3v-6Zm2 6h2v12h-2Zm0 0" style="stroke:none;fill-rule:nonzero;fill:#000;fill-opacity:1"/></g><g id="i" clip-path="url(#d)"><path d="M32 4C16.535 4 4 16.535 4 32c.008.137.012.27.023.406C4.343 17.184 16.773 5.008 32 5c15.293.012 27.75 12.29 27.98 27.578.008-.191.016-.387.02-.578C60 16.535 47.465 4 32 4Zm0 0" style="stroke:none;fill-rule:nonzero;fill:#fff;fill-opacity:1"/></g><filter id="a" width="100%" height="100%" x="0%" y="0%" filterUnits="objectBoundingBox"><feColorMatrix in="SourceGraphic" values="0 0 0 0 1 0 0 0 0 1 0 0 0 0 1 0 0 0 1 0"/></filter></defs><use xlink:href="#e" mask="url(#f)"/><path d="M32 4C16.535 4 4 16.535 4 32s12.535 28 28 28 28-12.535 28-28S47.465 4 32 4Zm0 0" style="stroke:none;fill-rule:nonzero;fill:#5ca742;fill-opacity:1"/><use xlink:href="#g" mask="url(#h)"/><path d="M32 10c-6.629 0-12 5.371-12 12s5.371 12 12 12 12-5.371 12-12-5.371-12-12-12Zm0 2c3.313 0 6 2.688 6 6 0 3.313-2.688 6-6 6-3.313 0-6-2.688-6-6 0-3.313 2.688-6 6-6Zm0 0" style="stroke:none;fill-rule:nonzero;fill:#fff;fill-opacity:1"/><path d="M26 30v19.867L32 54l6-4.133v-1.734l2-2-2-2V42l4-3-4-3v-6Zm2 6h2v12h-2Zm0 0" style="stroke:none;fill-rule:nonzero;fill:#fff;fill-opacity:1"/><use xlink:href="#i" mask="url(#j)"/></svg>