<svg xmlns="http://www.w3.org/2000/svg" width="64" height="64"><path d="M279 264a14.997 14.997 0 0 0-12.074-14.71 14.998 14.998 0 0 0-16.783 8.97 15 15 0 0 0 24.463 16.348A14.948 14.948 0 0 0 279 264Zm0 0" style="fill:none;stroke-width:2;stroke-linecap:round;stroke-linejoin:round;stroke:#498efc;stroke-opacity:1;stroke-miterlimit:4" transform="matrix(2 0 0 2 -496 -496)"/><path d="M272.07 256.93c3.905 3.904 3.905 10.234 0 14.14m-2.535-10.14a4.998 4.998 0 0 1 0 7.07m-13.605-11.07c-3.905 3.904-3.905 10.234 0 14.14m2.535-10.14a4.998 4.998 0 0 0 0 7.07" style="fill:none;stroke-width:2;stroke-linecap:round;stroke-linejoin:round;stroke:#f1d17c;stroke-opacity:1;stroke-miterlimit:4" transform="matrix(2 0 0 2 -496 -496)"/><path d="M4 2a1.999 1.999 0 1 1-4 0 1.999 1.999 0 1 1 4 0Zm0 0" style="fill:none;stroke-width:2;stroke-linecap:round;stroke-linejoin:round;stroke:#498efc;stroke-opacity:1;stroke-miterlimit:4" transform="matrix(2 0 0 2 28 28)"/></svg>