<svg xmlns="http://www.w3.org/2000/svg" width="64" height="64"><path d="M11.04 39.395h3.136v1.726h-3.137Zm0 3.39h3.136v1.856h-3.137Zm0 3.586h3.136v1.79h-3.137Zm38.972-6.594h3.136v1.86h-3.136Zm0 3.52h3.136v1.73h-3.136Zm0 3.52h3.136v1.73h-3.136ZM34.926 9.19h-5.258c-.965 0-1.992-.664-1.992-1.632V4.773h1.793v2.563h5.25V4.773h1.789V7.56c0 .968-.617 1.632-1.582 1.632Zm0 0" style="stroke:none;fill-rule:nonzero;fill:#ffb612;fill-opacity:1"/><path d="M54.875 33.7h-1.727v-5.118c0-.484-.222-1.09-.703-1.09h-2.433v-1.664h2.433c1.45 0 2.43 1.305 2.43 2.754Zm0 0" style="stroke:none;fill-rule:nonzero;fill:#262626;fill-opacity:1"/><path d="M54.195 54.754h-4.183v-1.856h4.183c.711 0 1.13-.593 1.13-1.543v-14.89c0-.95-.419-1.934-1.13-1.934h-4.183v-1.793h4.183c1.692 0 2.856 1.797 2.856 3.727v14.89c0 1.934-1.164 3.399-2.856 3.399Zm0 0" style="stroke:none;fill-rule:nonzero;fill:#262626;fill-opacity:1"/><path d="M45 11.688h-5.102V6.684c0-1.45-.894-2.743-2.343-2.743H27.043c-1.45 0-2.82 1.293-2.82 2.743v5.003h-4.625c-3.383 0-6.383 3.004-6.383 6.383v7.758h-1.063c-1.449 0-2.84 1.305-2.84 2.754v4.527c-.832.434-2.175 1.774-2.175 3.356v14.89c0 1.934 1.672 3.399 3.48 3.399h2.918c.426 3.008 2.98 5.184 6.063 5.184H45c3.379 0 5.973-2.575 5.973-5.954V18.07c0-3.379-2.594-6.383-5.973-6.383ZM25.95 6.684c0-.48.609-1.012 1.093-1.012h10.512c.48 0 .683.531.683 1.012v5.003H25.95ZM12.151 27.492h1.063v5.246h-2.176v-4.156c0-.484.629-1.09 1.113-1.09Zm-3.35 23.863v-14.89c0-.95.886-1.934 1.597-1.934h2.817v18.367h-2.598c-.844 0-1.816-.578-1.816-1.543Zm40.312 2.54a4.377 4.377 0 0 1-4.379 4.378H19.387a4.38 4.38 0 0 1-4.38-4.378V17.922a4.38 4.38 0 0 1 4.38-4.379h25.347a4.38 4.38 0 0 1 4.383 4.379v35.973Zm0 0" style="stroke:none;fill-rule:nonzero;fill:#262626;fill-opacity:1"/><path d="M44.766 36.242a3.506 3.506 0 0 0-3.504-3.504H22.863a3.503 3.503 0 0 0-3.504 3.504v14.88a3.5 3.5 0 0 0 3.504 3.503h18.399a3.503 3.503 0 0 0 3.504-3.504Zm-3.27 16.656H23.102c-.97 0-2.016-.578-2.016-1.543v-3.101c.96.3 1.375.293 2.016.293h18.394c.637 0 1.094.008 1.606-.293v3.101c0 .965-.641 1.543-1.606 1.543Zm1.477-7.832a1.75 1.75 0 0 1-1.754 1.75h-18.38a1.75 1.75 0 0 1-1.753-1.75v-8.78c0-.97.785-1.755 1.754-1.755h18.379c.968 0 1.754.785 1.754 1.754Zm-1.477-28.004H23.102c-1.934 0-3.743 1.704-3.743 3.637v5.473c0 1.812 1.809 3.176 3.743 3.176h18.394c1.93 0 3.27-1.364 3.27-3.176v-5.473c0-1.933-1.34-3.637-3.27-3.637Zm1.606 9.11c0 .848-.641 1.32-1.606 1.32H23.102c-.97 0-2.016-.472-2.016-1.32v-5.473c0-.965 1.047-1.91 2.016-1.91h18.394c.965 0 1.606.945 1.606 1.91Zm0 0" style="stroke:none;fill-rule:nonzero;fill:#262626;fill-opacity:1"/><path d="M28.793 40.844a3.503 3.503 0 1 0 7.007 0 3.503 3.503 0 0 0-7.007 0Zm12.516-16.766c0 .965-.786 1.75-1.754 1.75h-14.86a1.753 1.753 0 0 1-1.754-1.75v-1.746c0-.965.786-1.75 1.754-1.75h14.86c.968 0 1.754.785 1.754 1.75Zm0 0" style="stroke:none;fill-rule:nonzero;fill:#e0e0e0;fill-opacity:1"/></svg>