<svg xmlns="http://www.w3.org/2000/svg" width="64" height="64"><path d="M51.098.445H14.016c-2.438 0-4.422 1.922-4.422 4.285v47.942c0 2.363 1.984 4.281 4.422 4.281h2.59v4.719c0 1.027.859 1.86 1.914 1.86 1.058 0 1.918-.833 1.918-1.86v-4.719h3.23v4.719c0 1.027.86 1.86 1.922 1.86 1.055 0 1.914-.833 1.914-1.86v-4.719h3.234v4.719c0 1.027.852 1.86 1.918 1.86 1.051 0 1.91-.833 1.91-1.86v-4.719h3.235v4.719c0 1.027.86 1.86 1.914 1.86 1.062 0 1.922-.833 1.922-1.86v-4.719h3.234v4.719c0 1.027.86 1.86 1.914 1.86 1.063 0 1.922-.833 1.922-1.86v-4.719h2.39c2.438 0 4.423-1.918 4.423-4.281V4.73c0-2.363-1.985-4.285-4.422-4.285Zm0 0" style="stroke:none;fill-rule:nonzero;fill:#27323a;fill-opacity:1"/><path d="M37.781 53.242h-9.953v-4.629c0-.328-.137-.644-.375-.875a1.292 1.292 0 0 0-.906-.363h-4.754c2.234-2.855 9.527-12.16 11.062-14.113l11.063 14.113h-4.86a1.3 1.3 0 0 0-.906.363c-.238.23-.37.547-.37.875Zm0 0" style="stroke:none;fill-rule:nonzero;fill:#fff;fill-opacity:1"/><path d="M33.867 30.465a1.281 1.281 0 0 0-1.012-.488 1.3 1.3 0 0 0-1.02.488l-4.042 5.152c-6.094-2.043-10.297-7.59-10.297-13.82 0-8.043 6.758-14.582 15.067-14.582 8.3 0 15.062 6.539 15.062 14.582 0 5.988-4.027 11.46-9.852 13.652Zm0 0" style="stroke:none;fill-rule:nonzero;fill:#f4ce73;fill-opacity:1"/><path d="M51.691 52.672c0 .316-.27.57-.593.57H40.332v-3.39h6.156c.489 0 .93-.27 1.145-.692.09-.168.133-.355.133-.547 0-.27-.09-.531-.258-.75l-8.14-10.383c6.425-2.718 10.808-8.914 10.808-15.683 0-9.402-7.903-17.059-17.614-17.059-9.722 0-17.62 7.657-17.62 17.059 0 7.015 4.554 13.281 11.25 15.871l-7.993 10.195c-.289.375-.336.88-.125 1.297.219.422.664.692 1.145.692h6.05v3.39H14.017a.577.577 0 0 1-.586-.57V4.73c0-.316.261-.578.586-.578h37.082a.59.59 0 0 1 .593.578Zm0 0" style="stroke:none;fill-rule:nonzero;fill:#79ccbf;fill-opacity:1"/><path d="M27.875 21.465c0 2.5 2.098 4.535 4.688 4.535 2.578 0 4.671-2.035 4.671-4.535s-2.093-4.531-4.672-4.531c-2.59 0-4.687 2.03-4.687 4.53Zm0 0" style="stroke:none;fill-rule:nonzero;fill:#27323a;fill-opacity:1"/><path d="M30.43 21.465c0-1.133.957-2.059 2.133-2.059 1.167 0 2.12.926 2.12 2.059s-.953 2.058-2.12 2.058c-1.176 0-2.133-.925-2.133-2.058Zm0 0" style="stroke:none;fill-rule:nonzero;fill:#fff;fill-opacity:1"/></svg>