<svg xmlns="http://www.w3.org/2000/svg" width="64" height="64"><defs><clipPath id="a"><path d="M15 22h36.84v20H15Zm0 0"/></clipPath></defs><path d="M35.234 24.125c0 .992-.886 1.805-1.972 1.805L3.66 54.754c-1.086 0-1.973-.813-1.973-1.8V10.616c0-.992.887-1.805 1.973-1.805h17.762c1.086 0 1.973.813 1.973 1.805Zm0 0" style="stroke:none;fill-rule:nonzero;fill:#d3ac51;fill-opacity:1"/><path d="M4.055 55.652H3.66c-1.676 0-2.96-1.168-2.96-2.699V10.617c0-1.531 1.284-2.703 2.96-2.703h17.762c1.48 0 2.762.988 2.96 2.34l11.84 13.512v.359c0 1.352-1.085 2.434-2.468 2.703ZM3.66 9.715c-.59 0-.984.36-.984.902v42.336c0 .36.293.719.59.809L32.77 25.027h.394c.395 0 .79-.27.984-.629l-11.84-13.421v-.36c0-.543-.394-.902-.984-.902Zm0 0" style="stroke:none;fill-rule:nonzero;fill:#231c1c;fill-opacity:1"/><path d="M56.941 52.953c0 .988-.886 1.8-1.972 1.8H3.66c-1.086 0-1.973-.812-1.973-1.8l4.934-36.031c0-.992.887-1.8 1.973-1.8H60.89c1.086 0 1.972.808 1.972 1.8Zm0 0" style="stroke:none;fill-rule:nonzero;fill:#fac546;fill-opacity:1"/><path d="M54.969 55.652H3.66c-1.676 0-2.96-1.168-2.96-2.699v-.094l4.933-35.937c0-1.442 1.383-2.613 2.96-2.613h52.298c1.675 0 2.957 1.171 2.957 2.703v.09L57.93 53.043c-.098 1.441-1.383 2.61-2.961 2.61ZM2.676 53.043c0 .45.492.809.984.809H54.97c.593 0 .988-.36.988-.899v-.094l5.918-35.937c0-.453-.492-.813-.984-.813H8.594c-.59 0-.985.36-.985.903v.09Zm0 0" style="stroke:none;fill-rule:nonzero;fill:#231c1c;fill-opacity:1"/><path d="M49.43 35.621c0 9.996-7.543 18.098-16.856 18.098-9.308 0-16.855-8.102-16.855-18.098 0-9.996 7.547-18.098 16.855-18.098 9.313 0 16.856 8.102 16.856 18.098Zm0 0" style="stroke:none;fill-rule:nonzero;fill:#000;fill-opacity:1"/><path d="M49.434 34.977c0 5.902-2.633 11.144-6.704 14.449-2.824 2.293-5.507-2.211-9.316-2.211-8.758 0-16.77-1.602-17.613-10.504a18.407 18.407 0 0 1-.082-1.734c0-9.997 7.55-18.102 16.86-18.102 9.308 0 16.855 8.105 16.855 18.102Zm0 0" style="stroke:none;fill-rule:nonzero;fill:#42a5f5;fill-opacity:1"/><path d="M32.574 16.875c-9.308 0-16.855 8.105-16.855 18.102l.011.316c.165-9.863 7.657-17.766 16.844-17.77 9.188.008 16.676 7.91 16.84 17.77.008-.105.012-.211.016-.316 0-9.997-7.543-18.102-16.856-18.102Zm0 0" style="stroke:none;fill-rule:nonzero;fill:#fff;fill-opacity:1"/><g clip-path="url(#a)"><path d="M31.691 22.715c-.574.008-1.144.055-1.71.144-4.32.68-7.09 3.223-10.637 7.82-1.438 1.868-2.715 4.118-3.625 5.844.031.641.094 1.274.187 1.907 2.489-3.7 9.418-9.075 10.98-6.668 1.786 2.761-3.359 6.312-2.667 7.355.738 1.121 3.98-.46 6.988-.695 3.355-.254 5.14.86 7.387 2.71-.567-1.144-.934-1.98-1.153-2.8-.445-1.707.746-3.656 1.192-4.59.71-1.48 1.308-3.55 2.36-4.668 1.843-1.949 5.062-2.96 7.905-3.976.891-.317 1.68-.25 2.606-.465-.86-.52-1.934-.711-2.813-.723-4.68-.074-7.535.688-9.425.465-2.395-.277-4.637-1.695-7.575-1.66Zm0 0" style="stroke:none;fill-rule:evenodd;fill:#000;fill-opacity:1"/></g><path d="M26.137 29.594c-2.762-.254-7.91 3.824-10.25 7.761 1.105 8.958 8.195 15.665 16.61 15.72.425-.005.85-.016 1.273-.044.003 0 .003 0 .007-.004 3.325-.254 6.5-1.562 9.13-3.757-.368-2.59-1.618-5.454-4.313-8.782-3.395-4.258-8.61-10.207-12.457-10.898Zm0 0" style="stroke:none;fill-rule:evenodd;fill:#e4e4e4;fill-opacity:1"/><path d="M31.691 22.066c-.543.008-1.113.051-1.71.149-4.32.68-7.09 3.223-10.637 7.82-1.438 1.867-2.715 4.117-3.625 5.844.031.64.094 1.273.187 1.902 2.489-3.695 9.418-9.074 10.98-6.66 1.786 2.758-3.359 6.309-2.667 7.352.738 1.117 3.98-.461 6.988-.692 3.36-.261 5.145.856 7.387 2.707-.567-1.144-.934-1.98-1.153-2.8-.445-1.708.746-3.657 1.196-4.59.707-1.485 1.304-3.551 2.355-4.668 1.844-1.953 5.063-2.961 7.906-3.977.891-.316 1.68-.25 2.606-.469-.86-.515-1.934-.707-2.813-.718-4.68-.075-7.535.683-9.421.464-2.399-.28-4.641-1.699-7.579-1.664Zm0 0" style="stroke:none;fill-rule:evenodd;fill:#424242;fill-opacity:1"/><path d="M33.754 26.828a1.289 1.289 0 0 1-.512.82c-.265.192-.59.258-.902.192-.653-.145-1.074-.824-.945-1.527.062-.336.246-.63.511-.82.266-.188.59-.255.903-.188.652.14 1.074.824.945 1.523Zm0 0" style="stroke:none;fill-rule:nonzero;fill:#fff;fill-opacity:1"/><path d="M20.145 40.188c-.715-.012-2.29.718-3.317 1.222.426 1.211.977 2.367 1.637 3.453.668-2.308 2.355-3.922 2.004-4.539-.051-.094-.164-.136-.324-.136Zm0 0" style="stroke:none;fill-rule:evenodd;fill:#424242;fill-opacity:1"/><path d="M41.668 25.984c2.016-.601 5.492-2.074 8.027-2.418-.468-.093-1.312.063-1.777.114-2.504.535-4.95 1.605-6.25 2.304Zm0 0" style="stroke:none;fill-rule:evenodd;fill:#000;fill-opacity:1"/><path d="M36.824 27.945c.992-.55 1.473-1.011 3.79-1.636 2.253-.602 5.05-2.063 7.304-2.63-3.855.5-8.504 1.544-11.094 4.266Zm0 0" style="stroke:none;fill-rule:evenodd;fill:#ffc107;fill-opacity:1"/><path d="M31.41 26.89c-.004.024-.012.047-.015.07-.13.7.293 1.384.945 1.524.312.07.637 0 .902-.187.266-.192.453-.485.512-.82a1.355 1.355 0 0 0-.016-.575c-.16.664-.773 1.075-1.398.938-.453-.098-.813-.465-.93-.95Zm0 0" style="stroke:none;fill-rule:nonzero;fill:#000;fill-opacity:1"/></svg>