<svg xmlns="http://www.w3.org/2000/svg" width="64" height="64"><path d="M26.668 23.465V60.8a2.14 2.14 0 0 1-2.133 2.133H3.2A2.14 2.14 0 0 1 1.066 60.8V23.465A2.14 2.14 0 0 1 3.2 21.332h21.336a2.14 2.14 0 0 1 2.133 2.133Zm0 0" style="stroke:none;fill-rule:nonzero;fill:#4aa1b5;fill-opacity:1"/><path d="M5.332 21.332h2.133v41.602H5.332Zm0 0" style="stroke:none;fill-rule:nonzero;fill:#6eb4c4;fill-opacity:1"/><path d="M3.2 17.066h21.335v4.266H3.2Zm0 0" style="stroke:none;fill-rule:nonzero;fill:#1d8aa3;fill-opacity:1"/><path d="M5.332 17.066h2.133v4.266H5.332Zm0 0" style="stroke:none;fill-rule:nonzero;fill:#6eb4c4;fill-opacity:1"/><path d="M26.668 13.867v3.2H1.066v-3.2c0-7.074 5.727-12.8 12.801-12.8 3.54 0 6.742 1.43 9.055 3.745a12.744 12.744 0 0 1 3.746 9.055Zm0 0" style="stroke:none;fill-rule:nonzero;fill:#d2e8ed;fill-opacity:1"/><path d="M3.2 16C3.2 8.93 8.93 3.2 16 3.2c2.996 0 5.742 1.03 7.918 2.75-.313-.4-.64-.782-.996-1.138a12.751 12.751 0 0 0-9.055-3.746c-7.074 0-12.8 5.727-12.8 12.801v3.2h2.132Zm0 0" style="stroke:none;fill-rule:nonzero;fill:#e4f1f4;fill-opacity:1"/><path d="M26.668 18.133c.586 0 1.066-.477 1.066-1.067v-3.199c0-3.71-1.441-7.195-4.058-9.812A13.78 13.78 0 0 0 13.867 0C6.223 0 0 6.223 0 13.867v3.2c0 .59.477 1.066 1.066 1.066h1.067v2.332a3.192 3.192 0 0 0-2.133 3V60.8C0 62.562 1.438 64 3.2 64h21.335c1.762 0 3.2-1.438 3.2-3.2V23.466a3.192 3.192 0 0 0-2.133-3v-2.332ZM2.133 13.867c0-6.469 5.265-11.734 11.734-11.734 3.14 0 6.09 1.219 8.301 3.433a11.664 11.664 0 0 1 3.434 8.301V16H2.132Zm22.402 48H3.2a1.068 1.068 0 0 1-1.066-1.066v-32h11.734a1.065 1.065 0 1 0 0-2.133H2.133v-3.203c0-.586.48-1.067 1.066-1.067h21.336c.586 0 1.067.48 1.067 1.067v32H13.867a1.069 1.069 0 0 0 0 2.137h11.735V60.8c0 .59-.48 1.066-1.067 1.066Zm-1.07-41.601h-19.2v-2.133h19.2Zm0 0" style="stroke:none;fill-rule:nonzero;fill:#132c47;fill-opacity:1"/><path d="M14.934 49.066H8.535c-.59 0-1.07.477-1.07 1.067s.48 1.066 1.07 1.066h6.399a5.336 5.336 0 0 0 5.332-5.332 5.336 5.336 0 0 0-5.332-5.332h-2.668a2.668 2.668 0 0 1 0-5.336h6.933a1.065 1.065 0 1 0 0-2.133h-6.933a4.807 4.807 0 0 0-4.801 4.801 4.81 4.81 0 0 0 4.8 4.801h2.669a3.2 3.2 0 0 1 3.199 3.2 3.2 3.2 0 0 1-3.2 3.198ZM18.133 28.8h2.133a1.065 1.065 0 1 0 0-2.132h-2.133a1.065 1.065 0 1 0 0 2.133ZM9.602 55.465H7.465a1.068 1.068 0 0 0 0 2.137h2.137a1.068 1.068 0 0 0 0-2.137Zm1.066-46.93a1.07 1.07 0 0 1-1.066 1.067 1.068 1.068 0 0 1 0-2.137c.585 0 1.066.48 1.066 1.07Zm4.266 3.199a1.065 1.065 0 1 1-2.133 0 1.065 1.065 0 1 1 2.133 0Zm0-6.402a1.065 1.065 0 1 1-2.133 0 1.067 1.067 0 0 1 2.133 0ZM19.2 8.535a1.068 1.068 0 1 1-1.066-1.07c.589 0 1.065.48 1.065 1.07Zm0 0" style="stroke:none;fill-rule:nonzero;fill:#132c47;fill-opacity:1"/><path d="M62.934 23.465V60.8a2.14 2.14 0 0 1-2.133 2.133H39.465a2.14 2.14 0 0 1-2.133-2.133V23.465a2.14 2.14 0 0 1 2.133-2.133H60.8a2.14 2.14 0 0 1 2.133 2.133Zm0 0" style="stroke:none;fill-rule:nonzero;fill:#fcb23c;fill-opacity:1"/><path d="M41.602 21.332h2.132v41.602h-2.132Zm0 0" style="stroke:none;fill-rule:nonzero;fill:#fdc163;fill-opacity:1"/><path d="M39.465 17.066H60.8v4.266H39.465Zm0 0" style="stroke:none;fill-rule:nonzero;fill:#bd852d;fill-opacity:1"/><path d="M41.602 17.066h2.132v4.266h-2.132Zm0 0" style="stroke:none;fill-rule:nonzero;fill:#ca9d57;fill-opacity:1"/><path d="M62.934 13.867v3.2H37.332v-3.2c0-7.074 5.73-12.8 12.8-12.8 3.544 0 6.743 1.43 9.056 3.745a12.744 12.744 0 0 1 3.746 9.055Zm0 0" style="stroke:none;fill-rule:nonzero;fill:#fef0d8;fill-opacity:1"/><path d="M472.002 127.998H279.99v-23.994c0-53.057 42.979-96.006 96.006-96.006 26.572 0 50.567 10.723 67.91 28.096 17.373 17.343 28.096 41.338 28.096 67.91Zm0 0" style="fill:none;stroke-width:2;stroke-linecap:round;stroke-linejoin:round;stroke:#132c47;stroke-opacity:1;stroke-miterlimit:10" transform="scale(.13333)"/><path d="M62.934 13.867v3.2H37.332v-3.2c0-7.074 5.73-12.8 12.8-12.8 3.544 0 6.743 1.43 9.056 3.745a12.744 12.744 0 0 1 3.746 9.055Zm0 0" style="stroke:none;fill-rule:nonzero;fill:#fef0d8;fill-opacity:1"/><path d="M40.535 15.113c0-7.074 5.727-12.8 12.797-12.8 1.05 0 2.063.136 3.035.374a12.73 12.73 0 0 0-6.234-1.62c-7.07 0-12.801 5.726-12.801 12.8v3.2h3.203Zm0 0" style="stroke:none;fill-rule:nonzero;fill:#fef6e8;fill-opacity:1"/><path d="M46.934 8.535a1.068 1.068 0 1 1-1.066-1.07c.589 0 1.066.48 1.066 1.07Zm4.266 3.199a1.065 1.065 0 1 1-2.134 0 1.065 1.065 0 1 1 2.133 0Zm0-6.402a1.065 1.065 0 1 1-2.134 0 1.068 1.068 0 0 1 2.133 0Zm4.265 3.203c0 .586-.477 1.067-1.067 1.067a1.07 1.07 0 0 1-1.066-1.067c0-.59.48-1.07 1.066-1.07.59 0 1.067.48 1.067 1.07Zm0 0" style="stroke:none;fill-rule:nonzero;fill:#132c47;fill-opacity:1"/><path d="M62.934 18.133c.59 0 1.066-.477 1.066-1.067v-3.199c0-3.71-1.441-7.195-4.055-9.812A13.795 13.795 0 0 0 50.133 0c-7.645 0-13.867 6.223-13.867 13.867v3.2c0 .59.48 1.066 1.066 1.066h1.066v2.332a3.192 3.192 0 0 0-2.132 3V60.8a3.206 3.206 0 0 0 3.199 3.199H60.8A3.205 3.205 0 0 0 64 60.8V23.466a3.192 3.192 0 0 0-2.133-3v-2.332Zm-24.536-4.266c0-6.469 5.266-11.734 11.735-11.734 3.14 0 6.09 1.219 8.3 3.433a11.648 11.648 0 0 1 3.434 8.301V16H38.398Zm22.403 48H39.465a1.068 1.068 0 0 1-1.067-1.066v-32h11.735a1.065 1.065 0 1 0 0-2.133H38.398v-3.203c0-.586.48-1.067 1.067-1.067H60.8c.586 0 1.066.48 1.066 1.067v32H50.133a1.069 1.069 0 0 0 0 2.137h11.734V60.8c0 .59-.48 1.066-1.066 1.066Zm-1.067-41.601H40.535v-2.133h19.2Zm0 0" style="stroke:none;fill-rule:nonzero;fill:#132c47;fill-opacity:1"/><path d="M54.398 28.8h2.137a1.067 1.067 0 0 0 0-2.132h-2.137a1.068 1.068 0 0 0 0 2.133Zm-8.531 26.665h-2.133a1.069 1.069 0 0 0 0 2.137h2.133a1.069 1.069 0 0 0 0-2.137Zm6.399-12.797a5.343 5.343 0 0 0 5.336-5.336A5.34 5.34 0 0 0 52.266 32H48a3.203 3.203 0 0 0-3.2 3.2v16a1.065 1.065 0 1 0 2.134 0v-8.532Zm-5.332-7.469c0-.59.48-1.066 1.066-1.066h4.266a3.203 3.203 0 0 1 3.199 3.199 3.204 3.204 0 0 1-3.2 3.203h-5.331Zm0 0" style="stroke:none;fill-rule:nonzero;fill:#132c47;fill-opacity:1"/></svg>