<svg xmlns="http://www.w3.org/2000/svg" width="64" height="64"><path d="M58.395 64H5.605c-.949 0-1.718-.77-1.718-1.715V1.715C3.887.77 4.657 0 5.605 0h52.79c.949 0 1.718.77 1.718 1.715v31.543c0 .949-.77 1.719-1.718 1.719-.946 0-1.715-.77-1.715-1.72V3.435H7.32v57.132h49.36v-16.89c0-.95.765-1.719 1.715-1.719.949 0 1.718.77 1.718 1.719V62.28c0 .95-.77 1.719-1.718 1.719Zm0 0" style="stroke:none;fill-rule:nonzero;fill:#2d527c;fill-opacity:1"/><path d="M26.84 10.125h24.035v6.813H26.84Zm0 0" style="stroke:none;fill-rule:nonzero;fill:#cee8fa;fill-opacity:1"/><path d="M50.875 18.652H26.84c-.945 0-1.715-.77-1.715-1.715v-6.812c0-.945.77-1.715 1.715-1.715h24.035c.95 0 1.719.77 1.719 1.715v6.813c0 .945-.77 1.714-1.719 1.714ZM28.559 15.22H49.16v-3.375H28.56Zm0 0" style="stroke:none;fill-rule:nonzero;fill:#2d527c;fill-opacity:1"/><path d="M26.84 28.594h24.035v6.812H26.84Zm0 0" style="stroke:none;fill-rule:nonzero;fill:#cee8fa;fill-opacity:1"/><path d="M50.875 37.121H26.84c-.945 0-1.715-.77-1.715-1.715v-6.812c0-.946.77-1.715 1.715-1.715h24.035c.95 0 1.719.77 1.719 1.715v6.812c0 .946-.77 1.715-1.719 1.715Zm-22.316-3.434H49.16v-3.374H28.56ZM50.875 55.59H26.84a1.717 1.717 0 0 1 0-3.434h22.32v-3.375H26.84a1.718 1.718 0 0 1 0-3.433h24.035c.95 0 1.719.77 1.719 1.715v6.812c0 .945-.77 1.715-1.719 1.715ZM15.688 11.32c.12 0 .304-.027.492-.133v7.29c0 .64.64 1.09 1.554 1.09.918 0 1.555-.45 1.555-1.09V8.602c0-.684-.734-1.106-1.414-1.106-.246 0-.46.055-.629.156L15.2 8.895a1.27 1.27 0 0 0-.617 1.117c0 .629.422 1.308 1.105 1.308ZM14.336 38.02h5.527c.582 0 1.075-.649 1.075-1.415 0-.75-.493-1.382-1.075-1.382H16.2c.196-.348.824-.778 1.43-1.196 1.398-.953 3.308-2.261 3.308-4.488 0-2.312-2.042-3.559-3.96-3.559-1.872 0-3.856 1.165-3.856 3.325 0 1.324.777 1.601 1.43 1.601 1.05 0 1.617-.633 1.617-1.226 0-.203 0-.825.824-.825.774 0 .836.582.836.762 0 .758-1.074 1.547-2.113 2.309-1.367 1.004-2.777 2.043-2.777 3.5v1.504c-.004.703.824 1.09 1.398 1.09ZM19.84 50.047c.543-.535.863-1.43.863-2.488 0-1.442-.66-3.157-3.805-3.157-2.683 0-3.886 1.57-3.886 3.125 0 1.012.375 1.32 1.601 1.32.98 0 1.477-.413 1.477-1.23 0-.23 0-.445.808-.445.602 0 .805.195.805.773 0 .992-.383.992-.867.992-.645 0-1.043.489-1.043 1.274 0 .789.398 1.277 1.043 1.277.879 0 1.148.211 1.148.899v.297c0 .828-.234 1.054-1.086 1.054-1.039 0-1.039-.39-1.039-.558 0-.957-.632-1.153-1.586-1.153-.777 0-1.492.149-1.492 1.23 0 1.579 1.262 3.278 4.04 3.278 2.714 0 4.273-1.406 4.273-3.851v-.297c0-1.047-.434-1.848-1.254-2.34Zm0 0" style="stroke:none;fill-rule:nonzero;fill:#2d527c;fill-opacity:1"/></svg>