<svg xmlns="http://www.w3.org/2000/svg" width="64" height="64"><path d="M57.25 23.64c4.5-7.75-2.691-14.105-3.672-13.859-.797.196 2.313 8.32-3.25 7.051-13.117-2.996-27.144-1.691-36.125-.332-6.531 1.316-2.574-6.5-3.27-6.984-1-.25-8.527 6.195-3.523 13.796.61.86.95 1.883.98 2.938-1.304 9.5-1.699 22.977.587 24.941 5.226 4.25 44.082 2.618 47.351-.984 1.961-1.637 1.25-14.14-.066-23.305-.012-1.3.386-2.242.988-3.261Zm0 0" style="stroke:none;fill-rule:nonzero;fill:#191919;fill-opacity:1"/><path d="M28.113 55.734c-7.312 0-17.328-.484-20.398-2.984l-.04-.031c-1.066-.918-2.296-3-2.34-11.157.013-5.156.364-10.308 1.052-15.421a3.458 3.458 0 0 0-.637-1.727c-2.781-4.23-2.695-9.043.25-13.2.281-.433 3.035-4.214 5.41-3.64.235.059.453.156.652.29 1.301.886.973 2.386.688 3.69-.137.63-.55 2.5-.3 3.048.105.035.488.117 1.363-.055l.093-.02c14.086-2.136 26.5-2.015 36.86.356.261.074.535.097.804.07.325-.547.07-2.59 0-3.273-.062-.516-.117-.957-.129-1.348-.046-1.918 1.25-2.39 1.657-2.5 2.062-.5 4.367 2.305 5.023 3.18 1.5 1.98 4.55 7.277.863 13.625-.5.863-.687 1.422-.707 2.14a131.715 131.715 0 0 1 1.25 14.559c.164 7.367-.75 9.371-1.804 10.32-.825.836-2.692 1.89-9.149 2.805a143.9 143.9 0 0 1-15.117 1.184c-1.426.05-3.273.09-5.344.09Zm-17.797-6.03c1.45 1.023 8.5 2.35 22.528 1.964 12.5-.344 20.8-1.86 22.031-2.828l.063-.063c.917-1.636.835-11.12-.657-21.586a2.268 2.268 0 0 1-.02-.28 8.16 8.16 0 0 1 1.25-4.278c1.231-2.117 1.516-4.281.848-6.426a9.103 9.103 0 0 0-.664-1.57c-.11 1.234-.5 2.437-1.457 3.308-.75.668-2.097 1.352-4.363.836-9.871-2.25-21.75-2.36-35.328-.308-2.18.425-3.848.074-4.953-1.059a4.278 4.278 0 0 1-1.16-2.5c-.176.375-.32.766-.434 1.164-.602 2.059-.234 4.125 1.09 6.133a7.333 7.333 0 0 1 1.3 4.039c0 .09-.007.184-.019.273-.652 4.82-1 9.68-1.035 14.543-.008 6.7.836 8.399.98 8.637Zm0 0" style="stroke:none;fill-rule:nonzero;fill:#191919;fill-opacity:1"/><path d="M57.25 23.64c4.5-7.75-2.691-14.105-3.672-13.859-.797.196 2.313 8.32-3.25 7.051-13.117-2.996-27.144-1.691-36.125-.332-6.531 1.316-2.574-6.5-3.27-6.984-1-.25-8.527 6.195-3.523 13.796.61.86.95 1.883.98 2.938-1.304 9.5-1.699 22.977.587 24.941 5.226 4.25 44.082 2.618 47.351-.984 1.961-1.637 1.25-14.14-.066-23.305-.012-1.3.386-2.242.988-3.261Zm0 0" style="stroke:none;fill-rule:nonzero;fill:#e83a2a;fill-opacity:1"/><path d="M17.14 25.21c2.286.657 9.145 3.602 9.801 4.587.653.98-4.574 5.89-8.164 3.598-3.922-2.293-3.922-8.836-1.636-8.184ZM45.55 33.395c-3.917 2.289-8.816-2.618-8.163-3.598.656-.985 7.5-3.93 9.797-4.586 2.3-.652 2.285 5.89-1.633 8.184ZM31.836 45.176c-11.43 0-16.98-6.215-16-7.852.98-1.64 8.816 3.27 16.328 3.27 7.508 0 15.672-4.25 16.324-2.617.653 1.308-5.222 7.199-16.652 7.199Zm0 0" style="stroke:none;fill-rule:nonzero;fill:#fff;fill-opacity:1"/></svg>