<svg xmlns="http://www.w3.org/2000/svg" xmlns:xlink="http://www.w3.org/1999/xlink" width="64" height="64"><defs><clipPath id="b"><path d="M0 0h64v64H0z"/></clipPath><clipPath id="c"><path d="M0 0h64v64H0z"/></clipPath><mask id="e"><g filter="url(#a)"><path d="M0 0h64v64H0z" style="fill:#000;fill-opacity:.2;stroke:none"/></g></mask><mask id="g"><g filter="url(#a)"><path d="M0 0h64v64H0z" style="fill:#000;fill-opacity:.2;stroke:none"/></g></mask><g id="d" clip-path="url(#b)"><path d="m29.246 30.133-3.414 3.941-2.629 2.598-2.93 1.988-3.523 1.88-4.082 1.538-2.559.602-.109.336.11.668.003-.004 2.555-.602 4.082-1.539 3.523-1.879 2.93-1.988 2.633-2.598 3.414-3.941.125.082.066.191.336.489 2.297 1.39 2.895 1.805c3.488 2.152 5.515 4.969 9.281 6.047l4.691.55h.25l.364-1h-.617l-4.688-.55c-3.766-1.082-5.793-3.895-9.281-6.047l-2.895-1.805-2.3-1.39-.333-.493-.066-.187Zm-7.234 24.515-1.457.012-1.137.79-.04.452.388.309Zm6.234 3.227s-.34.422-.91.871c-.2.492-.36.969-.332 1.254h.226c.36-.969 1.016-2.129 1.016-2.129ZM52.305 4.004c-.664.05-1.407.488-2.004 1.46l-2.727 5.208-2.36 5.312-2.882 5.793-1.996 4.766-2.215-.945-3.191-1.391h-.782l-.664.188-1.074 1.43-3.117 4.167.148.414.137.203 2.832-3.785 1.074-1.43.664-.187h.782l3.191 1.39 2.215.946 1.996-4.766 2.883-5.793 2.36-5.312L50.3 6.465c1.3-2.11 3.265-1.707 3.636-.285.286-1.325-.566-2.258-1.632-2.176ZM45.598 28.84l-.227.578-.133.21.114.052.972.633 1.594.695 2.746 1.277.336.63.02-.126.054-.734-.41-.77-2.746-1.277-1.594-.695Zm0 0" style="stroke:none;fill-rule:nonzero;fill:#fff;fill-opacity:1"/></g><g id="f" clip-path="url(#c)"><path d="m49.188 41.688-.266.73-1.297 3.266-1.707 4.02-1.074 2.03-1.45 2.215-1.851 2.219c-1.766 1.863-3.734 3.605-6.711 3.68l-2.824-.035.52-.829-1.555.793-1.375.223H27.23c-.144.395-.25.762-.226 1h2.598l1.37-.227 1.56-.789-.52.825 2.82.035c2.98-.07 4.95-1.813 6.711-3.68l1.855-2.219 1.446-2.215 1.074-2.027 1.707-4.02 1.297-3.269.633-1.73Zm-39.079 1.996-.109.332.148.902.594 1.504 1.262 2.48 1.223 1.84 2.37 2.516 1.075 1.09.965.34 2.918-.028 1.457-1.012-4.375.04-.965-.34-1.074-1.09-2.371-2.516-1.223-1.84-1.262-2.48-.594-1.504Zm9.657 12.527-.348.238-.04.453 1.56 1.239 2.113 1.242c1.719.969 3.328.125 4.285-.637.371-.906.91-1.871.91-1.871s-2.46 3.05-5.195 1.508l-2.113-1.242ZM53.938 6.18c-.008.043-.012.082-.024.129l-.988 2.984-1.207 3.078-1.418 3.457-1.836 4.887L47 24.328l-1.629 4.09-.133.215.114.047.246.164L47 25.328l1.465-3.613 1.836-4.887 1.418-3.457 1.207-3.078.988-2.984c.113-.418.11-.801.023-1.13Zm-24.36 24.43-.285.382.148.414.332.492 2.301 1.387 2.89 1.805c3.493 2.152 5.52 4.969 9.286 6.047l4.688.55h.789l.05-.207.684-4.253.559-3.438.054-.734-.074-.14-.54 3.312-.683 4.25-.05.21h-.79l-4.687-.55c-3.766-1.082-5.797-3.895-9.285-6.051l-2.89-1.8-2.302-1.391Zm0 0" style="stroke:none;fill-rule:nonzero;fill:#000;fill-opacity:1"/></g><filter id="a" width="100%" height="100%" x="0%" y="0%" filterUnits="objectBoundingBox"><feColorMatrix in="SourceGraphic" values="0 0 0 0 1 0 0 0 0 1 0 0 0 0 1 0 0 0 1 0"/></filter></defs><path d="m29.246 30.133-3.41 3.941-2.633 2.598-2.93 1.988-3.523 1.88-4.082 1.534-2.559.606-.109.336.148.902.594 1.504L12 47.902l1.227 1.836 2.375 2.52 1.074 1.09.96.34 4.376-.04-2.594 1.801-.035.453 1.555 1.239 2.113 1.238c2.734 1.543 5.195-1.504 5.195-1.504S26.922 59.184 27.004 60h2.598l1.37-.227 1.56-.789-.524.825 2.824.039c2.977-.075 4.945-1.817 6.711-3.684l1.852-2.215 1.449-2.215 1.074-2.03 1.707-4.02 1.297-3.266.633-1.73h-.617l-4.688-.551c-3.766-1.082-5.793-3.895-9.285-6.047l-2.89-1.805-2.302-1.39-.332-.489-.066-.191-.125-.082Zm0 0" style="stroke:none;fill-rule:nonzero;fill:#fed24c;fill-opacity:1"/><path d="m50.3 5.465-2.726 5.207-2.36 5.312-2.886 5.793-1.992 4.766-2.215-.941-3.191-1.395h-.782l-.664.188-1.074 1.43-3.117 4.167.148.414.332.489 2.297 1.39 2.895 1.8c3.492 2.157 5.52 4.97 9.285 6.052l4.688.55h.789l.05-.207.68-4.253.563-3.438.054-.734-.41-.77-2.746-1.277-1.594-.695-.972-.633-.114-.047.133-.215L47 24.328l1.465-3.613 1.836-4.887 1.418-3.457 1.207-3.078.988-2.984c.59-2.23-2.012-3.438-3.613-.844Zm0 0" style="stroke:none;fill-rule:nonzero;fill:#c2352a;fill-opacity:1"/><use xlink:href="#d" mask="url(#e)"/><use xlink:href="#f" mask="url(#g)"/></svg>