<svg xmlns="http://www.w3.org/2000/svg" width="64" height="64"><path d="M64.098 32.121c0 17.672-14.325 32-32 32-17.672 0-32-14.328-32-32 0-17.676 14.328-32 32-32 17.675 0 32 14.324 32 32Zm0 0" style="stroke:none;fill-rule:nonzero;fill:#1fcfb8;fill-opacity:1"/><path d="M63.668 30.77 44.48 11.484l-6.94 11.493-3.602 4.761L19.98 53.012l10.81 10.867c.448.02.898.031 1.35.031 17.43 0 31.563-14.203 31.563-31.722 0-.477-.016-.95-.035-1.418Zm0 0" style="stroke:none;fill-rule:nonzero;fill:#17baa4;fill-opacity:1"/><path d="M47.625 6.848c-1.656 4.715-5.148 3.398-6.555 7.168-1.297 3.476-1.644 5.218-4.422 6.843-2.777 1.621-4.05 5.184-5.656 7.989-1.61 2.804-2.828 4.18-3.156 4.53-.332.349 2.012 1.493 2.148 1.27.137-.226 4.293-5.543 4.813-7.53.52-1.99 4.18-4.915 5.3-5.962 1.126-1.047 2.79-5.093 3.735-6.742.95-1.648 3.898-2.309 4.797-4.035.898-1.723 3.629-4.77 2.777-6.16-.324-.532-1.105-.727-1.617-.469-.828.418-1.465 1.785-2.164 3.098Zm0 0" style="stroke:none;fill-rule:nonzero;fill:#dd4545;fill-opacity:1"/><path d="m27.91 31.363.05.828.747-.562.02.89 1.128-.789-.128 1.23 1.242-.503-.328 1.043.968-.516-.297.993 1.196-.207c-1.34 2.292-1.824 2.75-2.738 3.566.02.652.003 1.852-1.567 2.394-2.652 6.907-3.922 16.168-8.738 18.473l.789-2.047c-.965 1.508-3.211 2.215-4.543 2.77l1.504-1.649c-2.09 1.028-2.246.97-5.414 2.27.172-2.184-.387-3.067-.332-4.715l-1.305 1.48c-.059-1.03-.289-2.628.79-4.183l-1.657 1c.996-6.504 9.02-10.367 14.375-15.676.469-2.297 1.754-2.121 2.043-2.191.594-2.063 1.504-2.64 2.191-3.899Zm0 0" style="stroke:none;fill-rule:nonzero;fill:#ffd630;fill-opacity:1"/><path d="m25.762 34.938 4.222 2.128c.184.094.254.29.153.43-.098.14-.328.184-.516.09l-4.219-2.133c-.187-.094-.254-.285-.156-.426.098-.144.332-.183.516-.09Zm-1.696 2.355 4.301 2.172c.188.094.258.289.16.43-.101.144-.332.183-.523.085l-4.297-2.171c-.187-.094-.262-.29-.164-.43.102-.145.336-.184.523-.086Zm0 0" style="stroke:none;fill-rule:nonzero;fill:#fdfdfd;fill-opacity:1"/><path d="M25.23 38.945s-8.117 7.867-10.75 10.809c-2.632 2.945-2.949 5.098-2.949 5.098s.895-2.82 6.594-8.082c5.7-5.262 7.105-7.825 7.105-7.825Zm1.508.762s-4.218 9.836-5.992 13.215C18.973 56.3 17.2 57.359 17.2 57.359s2.188-1.812 4.88-8.593c2.694-6.778 4.66-9.059 4.66-9.059Zm.95.45s-2.399 8.96-4.051 12.163c-1.649 3.2-3.438 3.926-3.438 3.926s2.946-1.828 4.422-7.836c1.48-6.008 3.067-8.254 3.067-8.254Zm-3.375-1.708s-8.086 6.09-10.598 8.856c-2.512 2.77-2.758 4.828-2.758 4.828s.832-3.453 6.316-7.434c5.489-3.984 7.04-6.25 7.04-6.25Zm1.487.742c-1.198 1.754-2.277 3.286-4.655 7.286 2.574-2.985 4.53-6.172 4.656-7.286Zm0 0" style="stroke:none;fill-rule:nonzero;fill:#f7b40a;fill-opacity:1"/><path d="m26.586 35.352 1.375-3.16.488-.372Zm4.727-1.375-2.415 2.625 2.954-2.72Zm-.668-.477-2.336 2.723 2.898-3.024Zm-.918-.54L27.87 36l2.317-3.227Zm-1-.444-1.465 3.234 1.64-3.355Zm0 0" style="stroke:none;fill-rule:nonzero;fill:#f7b900;fill-opacity:1"/></svg>