<svg xmlns="http://www.w3.org/2000/svg" width="64" height="64"><path d="m15.012 29-3.5 10.508L1 43.012l10.512 3.48L15.012 57l3.504-10.508L29 43.012l-10.484-3.504M51 15l-3 8.996-9 3.012 9 3 3 8.996 3-8.996 9-3-9-3.012M39 2l-2.254 6.738L30 10.992l6.746 2.25L39 20l2.254-6.758L48 10.992l-6.746-2.254M39 2" style="stroke:none;fill-rule:nonzero;fill:#e2b854;fill-opacity:1"/><path d="M28.797 18.223c-1.293-1.871-4.871-4.582-7.793-2.512-3 2.125-1.625 6.379-.328 8.25L46.98 61.863a4.92 4.92 0 0 0 6.907 1.23 5.022 5.022 0 0 0 1.215-6.968Zm0 0" style="stroke:none;fill-rule:nonzero;fill:#5c6982;fill-opacity:1"/><path d="M19.023 4.137a4.912 4.912 0 0 0-6.902-1.227 5.015 5.015 0 0 0-1.219 6.965l9.774 14.086c-.992-1.43-.082-4.14 2.105-5.688 2.192-1.546 5.051-1.441 6.016-.05" style="stroke:none;fill-rule:nonzero;fill:#c59da1;fill-opacity:1"/></svg>