<svg xmlns="http://www.w3.org/2000/svg" width="64" height="64"><path d="M35.234 24.125c0 .992-.886 1.805-1.972 1.805L3.66 54.754c-1.086 0-1.973-.813-1.973-1.8V10.616c0-.992.887-1.805 1.973-1.805h17.762c1.086 0 1.973.813 1.973 1.805Zm0 0" style="stroke:none;fill-rule:nonzero;fill:#d3ac51;fill-opacity:1"/><path d="M4.055 55.652H3.66c-1.676 0-2.96-1.168-2.96-2.699V10.617c0-1.531 1.284-2.703 2.96-2.703h17.762c1.48 0 2.762.988 2.96 2.34l11.84 13.512v.359c0 1.352-1.085 2.434-2.468 2.703ZM3.66 9.715c-.59 0-.984.36-.984.902v42.336c0 .36.293.719.59.809L32.77 25.027h.394c.395 0 .79-.27.984-.629l-11.84-13.421v-.36c0-.543-.394-.902-.984-.902Zm0 0" style="stroke:none;fill-rule:nonzero;fill:#231c1c;fill-opacity:1"/><path d="M56.941 52.953c0 .988-.886 1.8-1.972 1.8H3.66c-1.086 0-1.973-.812-1.973-1.8l4.934-36.031c0-.992.887-1.8 1.973-1.8H60.89c1.086 0 1.972.808 1.972 1.8Zm0 0" style="stroke:none;fill-rule:nonzero;fill:#fac546;fill-opacity:1"/><path d="M54.969 55.652H3.66c-1.676 0-2.96-1.168-2.96-2.699v-.094l4.933-35.937c0-1.442 1.383-2.613 2.96-2.613h52.298c1.675 0 2.957 1.171 2.957 2.703v.09L57.93 53.043c-.098 1.441-1.383 2.61-2.961 2.61ZM2.676 53.043c0 .45.492.809.984.809H54.97c.593 0 .988-.36.988-.899v-.094l5.918-35.937c0-.453-.492-.813-.984-.813H8.594c-.59 0-.985.36-.985.903v.09Zm0 0" style="stroke:none;fill-rule:nonzero;fill:#231c1c;fill-opacity:1"/><path d="M32.77 20.54c-8.708 0-15.766 7.034-15.766 15.71 0 8.68 7.058 15.715 15.766 15.715 8.707 0 15.765-7.035 15.765-15.715 0-8.676-7.058-15.71-15.765-15.71Zm0 0" style="stroke:none;fill-rule:nonzero;fill:#000;fill-opacity:1"/><path d="M32.77 19.977c-8.708 0-15.766 7.035-15.766 15.714 0 8.68 7.058 15.715 15.766 15.715 8.707 0 15.765-7.035 15.765-15.715S41.477 19.977 32.77 19.977Zm0 0" style="stroke:none;fill-rule:nonzero;fill:#5ca742;fill-opacity:1"/><path d="M32.77 23.906c-3.735 0-6.758 3.012-6.758 6.735 0 3.718 3.023 6.734 6.758 6.734 3.73 0 6.757-3.016 6.757-6.734 0-3.723-3.027-6.735-6.757-6.735Zm0 1.121a3.375 3.375 0 0 1 3.378 3.368 3.375 3.375 0 0 1-3.378 3.367 3.373 3.373 0 0 1-3.38-3.367 3.373 3.373 0 0 1 3.38-3.368Zm0 0" style="stroke:none;fill-rule:nonzero;fill:#000;fill-opacity:1"/><path d="M29.39 35.129v11.148l3.38 2.32 3.378-2.32v-.972l1.125-1.121-1.125-1.121v-1.2l2.25-1.683-2.25-1.684V35.13Zm1.126 3.367h1.125v6.734h-1.125Zm0 0" style="stroke:none;fill-rule:nonzero;fill:#000;fill-opacity:1"/><path d="M32.77 23.344c-3.735 0-6.758 3.015-6.758 6.734s3.023 6.735 6.758 6.735c3.73 0 6.757-3.016 6.757-6.735 0-3.719-3.027-6.734-6.757-6.734Zm0 1.12a3.378 3.378 0 0 1 3.378 3.368 3.375 3.375 0 0 1-3.378 3.367 3.373 3.373 0 0 1-3.38-3.367 3.373 3.373 0 0 1 3.38-3.367Zm0 0" style="stroke:none;fill-rule:nonzero;fill:#fff;fill-opacity:1"/><path d="M29.39 34.566V45.72l3.38 2.32 3.378-2.32v-.973l1.125-1.125-1.125-1.121v-1.2l2.25-1.683-2.25-1.683v-3.368Zm1.126 3.368h1.125v6.738h-1.125Zm0 0" style="stroke:none;fill-rule:nonzero;fill:#fff;fill-opacity:1"/><path d="M32.77 19.977c-8.708 0-15.766 7.035-15.766 15.714.004.075.004.153.012.227.18-8.543 7.18-15.375 15.754-15.379 8.609.004 15.625 6.895 15.753 15.477l.012-.325c0-8.68-7.058-15.714-15.765-15.714Zm0 0" style="stroke:none;fill-rule:nonzero;fill:#fff;fill-opacity:1"/></svg>