<svg xmlns="http://www.w3.org/2000/svg" width="64" height="64"><path d="M35.234 24.125c0 .992-.886 1.805-1.972 1.805L3.66 54.754c-1.086 0-1.973-.813-1.973-1.8V10.616c0-.992.887-1.805 1.973-1.805h17.762c1.086 0 1.973.813 1.973 1.805Zm0 0" style="stroke:none;fill-rule:nonzero;fill:#d3ac51;fill-opacity:1"/><path d="M4.055 55.652H3.66c-1.676 0-2.96-1.168-2.96-2.699V10.617c0-1.531 1.284-2.703 2.96-2.703h17.762c1.48 0 2.762.988 2.96 2.34l11.84 13.512v.359c0 1.352-1.085 2.434-2.468 2.703ZM3.66 9.715c-.59 0-.984.36-.984.902v42.336c0 .36.293.719.59.809L32.77 25.027h.394c.395 0 .79-.27.984-.629l-11.84-13.421v-.36c0-.543-.394-.902-.984-.902Zm0 0" style="stroke:none;fill-rule:nonzero;fill:#231c1c;fill-opacity:1"/><path d="M56.941 52.953c0 .988-.886 1.8-1.972 1.8H3.66c-1.086 0-1.973-.812-1.973-1.8l4.934-36.031c0-.992.887-1.8 1.973-1.8H60.89c1.086 0 1.972.808 1.972 1.8Zm0 0" style="stroke:none;fill-rule:nonzero;fill:#fac546;fill-opacity:1"/><path d="M54.969 55.652H3.66c-1.676 0-2.96-1.168-2.96-2.699v-.094l4.933-35.937c0-1.442 1.383-2.613 2.96-2.613h52.298c1.675 0 2.957 1.171 2.957 2.703v.09L57.93 53.043c-.098 1.441-1.383 2.61-2.961 2.61ZM2.676 53.043c0 .45.492.809.984.809H54.97c.593 0 .988-.36.988-.899v-.094l5.918-35.937c0-.453-.492-.813-.984-.813H8.594c-.59 0-.985.36-.985.903v.09Zm0 0" style="stroke:none;fill-rule:nonzero;fill:#231c1c;fill-opacity:1"/><path d="m21.48 33.21-2.043 5.876-6.128 1.96 6.129 1.946 2.042 5.88 2.043-5.88 6.11-1.945-6.11-1.961m18.938-13.707-1.75 5.031-5.246 1.688 5.246 1.675 1.75 5.032 1.746-5.032 5.25-1.675-5.25-1.688m-8.742-12.3-1.317 3.769-3.93 1.262 3.93 1.257 1.317 3.778 1.312-3.778 3.934-1.257-3.934-1.262m-1.312-3.77" style="stroke:none;fill-rule:nonzero;fill:#f60;fill-opacity:1"/><path d="M29.516 27.184c-.754-1.047-2.84-2.563-4.543-1.407-1.75 1.188-.95 3.567-.192 4.614L40.117 51.59a2.87 2.87 0 0 0 1.863 1.152 2.938 2.938 0 0 0 2.165-.465c1.308-.89 1.625-2.632.707-3.894Zm0 0" style="stroke:none;fill-rule:nonzero;fill:#5c6982;fill-opacity:1"/><path d="M23.816 19.305a2.872 2.872 0 0 0-1.859-1.153 2.975 2.975 0 0 0-2.164.465c-1.313.89-1.629 2.633-.711 3.899l5.7 7.875c-.579-.797-.048-2.313 1.226-3.18 1.277-.863 2.945-.805 3.508-.027" style="stroke:none;fill-rule:nonzero;fill:#c59da1;fill-opacity:1"/></svg>