<svg xmlns="http://www.w3.org/2000/svg" width="64" height="64"><path d="M33.89 33.762a17.624 17.624 0 0 0-5.245 12.55c.007 1.329.168 2.59.44 3.825H12.278V33.762Zm-18.945-20.93V3.547h23.836v9.285c0 .98-.789 1.781-1.781 1.781H16.715c-.98-.011-1.77-.8-1.77-1.781Zm0 0" style="stroke:none;fill-rule:nonzero;fill:#fff;fill-opacity:1"/><path d="M49.605 9.375c.325.324.516.79.516 1.262V29.07a17.61 17.61 0 0 0-3.816-.433c-2.582 0-5.028.57-7.227 1.562h-28.57a1.793 1.793 0 0 0-1.781 1.79v18.148H5.332c-.98 0-1.781-.79-1.781-1.77V5.328c0-.98.789-1.781 1.781-1.781h6.05v9.285a5.344 5.344 0 0 0 5.333 5.332h20.273a5.342 5.342 0 0 0 5.336-5.332V3.547h.715c.473 0 .918.187 1.254.515Zm0 0" style="stroke:none;fill-rule:nonzero;fill:#fff;fill-opacity:1"/><path d="M16.703 14.602H36.98c.98 0 1.782-.79 1.782-1.782V3.535h-23.84v9.285c0 .992.8 1.782 1.781 1.782Zm0 0" style="stroke:none;fill-rule:nonzero;fill:#56ace0;fill-opacity:1"/><path d="M60.438 46.313c0-7.79-6.333-14.114-14.11-14.114-7.777 0-14.113 6.336-14.113 14.114 0 7.777 6.344 14.109 14.113 14.109 7.766 0 14.11-6.324 14.11-14.11Zm0 0" style="stroke:none;fill-rule:nonzero;fill:#ffc10d;fill-opacity:1"/><path d="M31.996 11.543c.98 0 1.781-.79 1.781-1.777V6.39a1.78 1.78 0 0 0-1.78-1.782c-.993 0-1.782.793-1.782 1.782v3.375c0 .988.8 1.777 1.781 1.777Zm0 0" style="stroke:none;fill-rule:nonzero;fill:#194f82;fill-opacity:1"/><path d="M28.645 46.313c.007 1.328.168 2.59.44 3.824H12.278V33.762h21.614a17.621 17.621 0 0 0-5.246 12.55Zm0 0" style="stroke:none;fill-rule:nonzero;fill:#56ace0;fill-opacity:1"/><path d="M50.773 48.027c-.98 0-1.78-.789-1.78-1.78v-7.145h-5.364v7.144c0 .98-.79 1.781-1.781 1.781h-.317l4.774 4.778 4.777-4.778Zm0 0" style="stroke:none;fill-rule:nonzero;fill:#fff;fill-opacity:1"/><path d="M55.39 44.457h-2.835v-7.145c0-.98-.79-1.78-1.782-1.78H41.86c-.98 0-1.78.788-1.78 1.78v7.145h-2.837c-1.379-.023-2.476 1.855-1.265 3.035l9.074 9.074c.695.653 1.781.715 2.52 0l9.074-9.074c1.285-1.433-.055-3.078-1.254-3.035Zm-13.847 3.57h.316c.98 0 1.782-.789 1.782-1.78v-7.145h5.363v7.144c0 .98.789 1.781 1.781 1.781h.317l-4.774 4.778Zm0 0" style="stroke:none;fill-rule:nonzero;fill:#194f82;fill-opacity:1"/><path d="M53.703 30.273V10.637a5.302 5.302 0 0 0-1.558-3.762l-5.313-5.309A5.316 5.316 0 0 0 43.051.004H5.332A5.339 5.339 0 0 0 0 5.336v43.039c0 2.922 2.39 5.324 5.332 5.324h24.957c2.793 6.059 8.926 10.297 16.04 10.297C56.065 63.996 64 56.07 64 46.32c-.012-7.113-4.246-13.234-10.297-16.047Zm-21.496 16.04c0-7.79 6.344-14.114 14.11-14.114 7.765 0 14.109 6.336 14.109 14.114 0 7.777-6.332 14.109-14.11 14.109-7.777 0-14.109-6.324-14.109-14.11Zm-3.121 3.824H12.277V33.77h21.614a17.632 17.632 0 0 0-5.246 12.55c.007 1.32.168 2.582.44 3.817Zm9.684-46.59v9.285c0 .98-.79 1.781-1.782 1.781H16.715a1.78 1.78 0 0 1-1.781-1.781V3.547ZM8.727 31.988v18.149H5.332c-.98 0-1.781-.79-1.781-1.782V5.328c0-.98.789-1.781 1.781-1.781h6.05v9.285a5.339 5.339 0 0 0 5.333 5.332h20.273a5.342 5.342 0 0 0 5.336-5.332V3.547h.715c.473 0 .918.187 1.266.515l5.308 5.313c.328.324.52.79.52 1.266v18.43a17.61 17.61 0 0 0-3.817-.434c-2.582 0-5.027.57-7.23 1.562H10.508a1.797 1.797 0 0 0-1.781 1.79Zm0 0" style="stroke:none;fill-rule:nonzero;fill:#194f82;fill-opacity:1"/></svg>