<svg xmlns="http://www.w3.org/2000/svg" width="64" height="64"><path d="M58.668 3.55h-4.84v16.845c0 .98-.789 1.78-1.781 1.78h-38.61c-.98 0-1.78-.788-1.78-1.78V3.55h-2.93L3.55 8.727v49.93c0 .98.793 1.78 1.781 1.78h6.336v-25.6c0-.98.789-1.781 1.781-1.781H52.07c.98 0 1.782.789 1.782 1.78V60.45h4.816a1.78 1.78 0 0 0 1.781-1.781V5.332c0-.98-.8-1.781-1.781-1.781Zm0 0" style="stroke:none;fill-rule:nonzero;fill:#56ace0;fill-opacity:1"/><path d="M15.219 3.55h35.07v15.075H15.22Zm0 0" style="stroke:none;fill-rule:nonzero;fill:#fff;fill-opacity:1"/><path d="M15.219 36.617v23.84h35.07v-23.84Zm27.176 18.004H23.094a1.77 1.77 0 0 1-1.77-1.781c0-.98.79-1.781 1.77-1.781h19.3a1.78 1.78 0 0 1 1.782 1.78 1.79 1.79 0 0 1-1.781 1.782Zm0-8.625H23.094a1.775 1.775 0 0 1 0-3.55h19.3a1.78 1.78 0 0 1 1.782 1.78c0 .981-.805 1.77-1.781 1.77Zm0 0" style="stroke:none;fill-rule:nonzero;fill:#ffc10d;fill-opacity:1"/><path d="M58.668 0H8a1.87 1.87 0 0 0-1.266.516L.516 6.734C.19 7.074 0 7.527 0 8v50.668A5.339 5.339 0 0 0 5.332 64h53.336A5.339 5.339 0 0 0 64 58.668V5.332A5.339 5.339 0 0 0 58.668 0Zm-43.45 3.55H50.29v15.075H15.22Zm0 56.9V36.604H50.29V60.45Zm45.231-1.782a1.78 1.78 0 0 1-1.781 1.781h-4.84V34.836c0-.98-.789-1.781-1.781-1.781h-38.61c-.98 0-1.78.789-1.78 1.78V60.45H5.331a1.78 1.78 0 0 1-1.781-1.781V8.727L8.727 3.55h2.941v16.844c0 .98.789 1.78 1.781 1.78H52.07a1.78 1.78 0 0 0 1.782-1.78V3.55h4.816c.98 0 1.781.793 1.781 1.781Zm0 0" style="stroke:none;fill-rule:nonzero;fill:#194f82;fill-opacity:1"/><path d="M44.047 5.121a1.78 1.78 0 0 0-1.781 1.781v5.809a1.78 1.78 0 1 0 3.562 0V6.902a1.793 1.793 0 0 0-1.781-1.78Zm-1.652 37.324H23.094c-.98 0-1.782.79-1.782 1.782 0 .968.79 1.78 1.782 1.78h19.3a1.78 1.78 0 1 0 0-3.562Zm0 8.621H23.094a1.78 1.78 0 0 0-1.782 1.782c0 .98.79 1.78 1.782 1.78h19.3a1.78 1.78 0 1 0 0-3.562Zm0 0" style="stroke:none;fill-rule:nonzero;fill:#194f82;fill-opacity:1"/></svg>