<svg xmlns="http://www.w3.org/2000/svg" width="64" height="64"><path d="M11 2C7.133 2 4 5.133 4 9s3.133 7 7 7 7-3.133 7-7a7.008 7.008 0 0 0-7-7Zm0 10a3 3 0 1 1 .002-6.002A3 3 0 0 1 11 12Zm14 5.332a7.001 7.001 0 1 0 7 7 7.008 7.008 0 0 0-7-7Zm0 10a3 3 0 1 1 .002-6.002A3 3 0 0 1 25 27.332ZM11 46.668a7.001 7.001 0 1 0-7-7 7.008 7.008 0 0 0 7 7Zm0-10a3 3 0 1 1-.002 6.002A3 3 0 0 1 11 36.668ZM25 62c3.867 0 7-3.133 7-7s-3.133-7-7-7-7 3.133-7 7a7.008 7.008 0 0 0 7 7Zm0-10a3 3 0 1 1-.002 6.002A3 3 0 0 1 25 52ZM39 2c-3.867 0-7 3.133-7 7s3.133 7 7 7 7-3.133 7-7a7.008 7.008 0 0 0-7-7Zm0 10a3 3 0 1 1 .002-6.002A3 3 0 0 1 39 12Zm14 5.332a7.001 7.001 0 1 0 7 7 7.008 7.008 0 0 0-7-7Zm0 10a3 3 0 1 1 .002-6.002A3 3 0 0 1 53 27.332ZM39 46.668a7.001 7.001 0 1 0-7-7 7.008 7.008 0 0 0 7 7Zm0-10a3 3 0 1 1-.002 6.002A3 3 0 0 1 39 36.668ZM53 48c-3.867 0-7 3.133-7 7s3.133 7 7 7 7-3.133 7-7a7.008 7.008 0 0 0-7-7Zm0 10a3 3 0 1 1 .002-6.002A3 3 0 0 1 53 58Zm0 0" style="stroke:none;fill-rule:nonzero;fill:teal;fill-opacity:1"/></svg>